<svg xmlns="http://www.w3.org/2000/svg" xmlns:xlink="http://www.w3.org/1999/xlink" xmlns:serif="http://www.serif.com/" version="1.1" xml:space="preserve" style="fill-rule:evenodd;clip-rule:evenodd;stroke-linecap:round;stroke-linejoin:round;stroke-miterlimit:1.5;" viewBox="8.11 23.68 907.74 85.52">
    <g transform="matrix(1,0,0,1,-3438.35,-5394.08)">
        <g id="Top-border" serif:id="Top border" transform="matrix(0.743922,0,0,0.157859,814.649,4505.69)">
            <rect x="3526.85" y="5627.74" width="1233.06" height="692.909" style="fill:none;"/>
            <g id="Top-border1" serif:id="Top border" transform="matrix(0.253966,0,0,1.19684,3276.07,5402.21)">
                <g transform="matrix(1,0,0,1,-11.348,3.16166)">
                    <path d="M3068.19,564.985C3112.72,555.993 3160.12,537.658 3215.14,494.576C3301.71,412.451 3369.71,410.226 3432.68,448.38" style="fill:none;stroke:rgb(255,231,202);stroke-width:33.08px;"/>
                    <path d="M1129.25,511.594L1854.48,511.594" style="fill:none;stroke:rgb(255,231,202);stroke-width:33.08px;"/>
                    <path d="M3068.19,564.985C2952.37,558.424 2790.36,522.098 2602.88,469.362C2563.1,458.153 2521.28,456.162 2480.6,463.539C2475.5,464.465 2470.43,465.5 2465.4,466.656C2417.97,477.786 2381.48,515.696 2372.16,563.512C2371.84,563.531 2371.83,563.609 2371.81,563.687C2370.51,570.375 2372.35,577.291 2376.81,582.444C2381.27,587.598 2387.85,590.418 2394.65,590.092C2402.98,589.694 2411.96,589.265 2419.81,588.889C2424.92,588.645 2429.62,585.994 2432.47,581.743C2435.33,577.491 2436,572.14 2434.29,567.313C2433.45,564.927 2432.57,562.462 2431.7,559.995C2425.59,542.758 2410.2,530.5 2392.03,528.398C2381.53,527.182 2369.02,525.734 2355.83,524.207C2285.2,516.033 2213.66,525.26 2147.42,551.082C2147.42,551.082 2147.42,551.083 2147.41,551.083C2124.17,560.147 2098.75,562.104 2074.39,556.708C2043.74,549.919 2005.37,541.422 2005.37,541.422" style="fill:none;stroke:rgb(255,231,202);stroke-width:33.08px;"/>
                    <path d="M2643.85,481.012C2523.1,483.986 2478.02,539.97 2495.86,603.898C2526.48,672.073 2561.3,684.356 2618.35,670.819C2641.41,648.016 2647.33,623.667 2627.66,607.001" style="fill:none;stroke:rgb(255,231,202);stroke-width:33.08px;"/>
                    <g transform="matrix(1,0,0,1,0,-14.4226)">
                        <circle cx="1907.87" cy="526.016" r="53.391" style="fill:none;stroke:rgb(255,231,202);stroke-width:33.08px;"/>
                    </g>
                    <path d="M3068.19,564.985C2984.78,485.949 2867.12,497.462 2918.13,418.092C2951.63,392.987 2994.48,399.182 3012.76,446.617" style="fill:none;stroke:rgb(255,231,202);stroke-width:33.08px;"/>
                    <g transform="matrix(-1,0,0,1,6136.37,-3.26829)">
                        <path d="M3068.19,564.985C2984.78,485.949 2867.12,497.462 2918.13,418.092C2951.63,392.987 2994.48,399.182 3012.76,446.617" style="fill:none;stroke:rgb(255,231,202);stroke-width:33.08px;"/>
                    </g>
                    <g transform="matrix(1.02479,0,0,1,-76.075,0)">
                        <path d="M2085.37,446.066C2023.82,418.298 1981.98,449.192 1992.85,511.594C2003.93,535.716 2022.97,542.955 2048.02,542.765C2073,542.537 2097.3,534.363 2117.56,519.374C2387.05,321.019 2711.44,383.974 3068.19,564.985" style="fill:none;stroke:rgb(255,231,202);stroke-width:32.67px;"/>
                    </g>
                </g>
                <g transform="matrix(-1,0,0,1,6876.7,3.16166)">
                    <path d="M3068.19,564.985C3112.72,555.993 3160.12,537.658 3215.14,494.576C3301.71,412.451 3369.71,410.226 3432.68,448.38" style="fill:none;stroke:rgb(255,231,202);stroke-width:33.08px;"/>
                    <path d="M1129.25,511.594L1854.48,511.594" style="fill:none;stroke:rgb(255,231,202);stroke-width:33.08px;"/>
                    <path d="M3068.19,564.985C2952.37,558.424 2790.36,522.098 2602.88,469.362C2563.1,458.153 2521.28,456.162 2480.6,463.539C2475.5,464.465 2470.43,465.5 2465.4,466.656C2417.97,477.786 2381.48,515.696 2372.16,563.512C2371.84,563.531 2371.83,563.609 2371.81,563.687C2370.51,570.375 2372.35,577.291 2376.81,582.444C2381.27,587.598 2387.85,590.418 2394.65,590.092C2402.98,589.694 2411.96,589.265 2419.81,588.889C2424.92,588.645 2429.62,585.994 2432.47,581.743C2435.33,577.491 2436,572.14 2434.29,567.313C2433.45,564.927 2432.57,562.462 2431.7,559.995C2425.59,542.758 2410.2,530.5 2392.03,528.398C2381.53,527.182 2369.02,525.734 2355.83,524.207C2285.2,516.033 2213.66,525.26 2147.42,551.082C2147.42,551.082 2147.42,551.083 2147.41,551.083C2124.17,560.147 2098.75,562.104 2074.39,556.708C2043.74,549.919 2005.37,541.422 2005.37,541.422" style="fill:none;stroke:rgb(255,231,202);stroke-width:33.08px;"/>
                    <path d="M2643.85,481.012C2523.1,483.986 2478.02,539.97 2495.86,603.898C2526.48,672.073 2561.3,684.356 2618.35,670.819C2641.41,648.016 2647.33,623.667 2627.66,607.001" style="fill:none;stroke:rgb(255,231,202);stroke-width:33.08px;"/>
                    <g transform="matrix(1,0,0,1,0,-14.4226)">
                        <circle cx="1907.87" cy="526.016" r="53.391" style="fill:none;stroke:rgb(255,231,202);stroke-width:33.08px;"/>
                    </g>
                    <path d="M3068.19,564.985C2984.78,485.949 2867.12,497.462 2918.13,418.092C2951.63,392.987 2994.48,399.182 3012.76,446.617" style="fill:none;stroke:rgb(255,231,202);stroke-width:33.08px;"/>
                    <g transform="matrix(-1,0,0,1,6136.37,-3.26829)">
                        <path d="M3068.19,564.985C2984.78,485.949 2867.12,497.462 2918.13,418.092C2951.63,392.987 2994.48,399.182 3012.76,446.617" style="fill:none;stroke:rgb(255,231,202);stroke-width:33.08px;"/>
                    </g>
                    <g transform="matrix(1.02479,0,0,1,-76.075,0)">
                        <path d="M2085.37,446.066C2023.82,418.298 1981.98,449.192 1992.85,511.594C2003.93,535.716 2022.97,542.955 2048.02,542.765C2073,542.537 2097.3,534.363 2117.56,519.374C2387.05,321.019 2711.44,383.974 3068.19,564.985" style="fill:none;stroke:rgb(255,231,202);stroke-width:32.67px;"/>
                    </g>
                </g>
            </g>
        </g>
    </g>
</svg>