<svg width="497" height="142" viewBox="0 0 497 142" fill="none" xmlns="http://www.w3.org/2000/svg">
<path d="M161.922 103C160.766 103 159.922 102.734 159.391 102.203C158.859 101.672 158.594 100.828 158.594 99.6719V47.9688C158.594 46.8125 158.859 45.9844 159.391 45.4844C159.922 44.9531 160.766 44.6875 161.922 44.6875H180.578C186.297 44.6875 191.141 45.8125 195.109 48.0625C199.109 50.2812 202.125 53.5625 204.156 57.9062C206.219 62.25 207.25 67.5469 207.25 73.7969C207.25 80.0781 206.219 85.3906 204.156 89.7344C202.125 94.0781 199.109 97.375 195.109 99.625C191.141 101.875 186.297 103 180.578 103H161.922ZM180.578 92.0781C185.016 92.0781 188.375 90.5312 190.656 87.4375C192.938 84.3125 194.078 79.7656 194.078 73.7969C194.078 67.8594 192.938 63.3438 190.656 60.25C188.375 57.125 185.016 55.5625 180.578 55.5625H171.531V92.0781H180.578ZM226.609 103.703C222.359 103.703 219.234 102.594 217.234 100.375C215.266 98.125 214.281 95.1562 214.281 91.4688C214.281 88.6875 214.859 86.1875 216.016 83.9688C217.172 81.7188 219.516 79.8281 223.047 78.2969C226.578 76.7656 231.625 76 238.188 76V73.2344C238.188 71.6094 237.672 70.4062 236.641 69.625C235.609 68.8438 233.969 68.4531 231.719 68.4531C229.844 68.4531 228.234 68.6562 226.891 69.0625C225.547 69.4375 224.094 69.9531 222.531 70.6094C221.719 70.9844 221.219 71.1719 221.031 71.1719C220.469 71.1719 219.844 70.75 219.156 69.9062C218.5 69.0625 217.922 68.0938 217.422 67C216.922 65.9062 216.672 65.0781 216.672 64.5156C216.672 63.5469 217.359 62.625 218.734 61.75C220.141 60.8438 222.062 60.125 224.5 59.5938C226.938 59.0312 229.641 58.75 232.609 58.75C238.859 58.75 243.406 60 246.25 62.5C249.094 64.9688 250.516 68.3594 250.516 72.6719V88.2812C250.516 90.875 250.578 92.8906 250.703 94.3281C250.859 95.7656 251.062 97.1875 251.312 98.5938C251.469 99.4375 251.547 100.031 251.547 100.375C251.547 101 250.953 101.516 249.766 101.922C248.609 102.328 247.281 102.625 245.781 102.812C244.281 103 243.078 103.094 242.172 103.094C241.203 103.094 240.5 102.688 240.062 101.875C239.656 101.031 239.328 99.8906 239.078 98.4531C239.047 98.2656 239.016 98.0781 238.984 97.8906C238.953 97.7031 238.906 97.5156 238.844 97.3281C238.531 97.9219 237.859 98.7188 236.828 99.7188C235.828 100.719 234.453 101.641 232.703 102.484C230.953 103.297 228.922 103.703 226.609 103.703ZM230.688 93.9062C232.25 93.9062 233.719 93.4219 235.094 92.4531C236.469 91.4531 237.5 90.1875 238.188 88.6562V84.0625C230.406 84.0625 226.516 86.1094 226.516 90.2031C226.516 91.2969 226.875 92.1875 227.594 92.875C228.344 93.5625 229.375 93.9062 230.688 93.9062ZM278.078 120.672C264.859 120.672 258.25 116.828 258.25 109.141C258.25 106.984 258.891 105.078 260.172 103.422C261.484 101.766 263.375 100.453 265.844 99.4844L265.891 99.1562C264.766 98.5625 263.891 97.7188 263.266 96.625C262.641 95.5312 262.328 94.2969 262.328 92.9219C262.328 91.5156 262.75 90.2188 263.594 89.0312C264.469 87.8438 265.719 86.8281 267.344 85.9844C265.219 84.7969 263.547 83.1719 262.328 81.1094C261.141 79.0469 260.547 76.5312 260.547 73.5625C260.547 68.5 262.188 64.7656 265.469 62.3594C268.781 59.9531 273.125 58.75 278.5 58.75C280.75 58.75 282.891 58.9688 284.922 59.4062H298.328C299.203 59.4062 299.844 59.75 300.25 60.4375C300.656 61.0938 300.859 62.1406 300.859 63.5781V64.9844C300.859 67.6094 300.188 68.9219 298.844 68.9219C298.375 68.9219 297.734 68.8906 296.922 68.8281C296.141 68.7656 295.578 68.6875 295.234 68.5938L295.094 68.9219C295.469 69.4219 295.781 70.125 296.031 71.0312C296.281 71.9062 296.406 72.75 296.406 73.5625C296.406 78.5312 294.844 82.2344 291.719 84.6719C288.594 87.0781 284.5 88.2812 279.438 88.2812C276.031 88.2812 274.328 89.0469 274.328 90.5781C274.328 91.2656 274.672 91.8125 275.359 92.2188C276.047 92.5938 276.922 92.8906 277.984 93.1094C279.078 93.3281 280.625 93.5625 282.625 93.8125C284.062 93.9688 285.406 94.1562 286.656 94.375C290.594 95.1562 293.734 96.4375 296.078 98.2188C298.422 99.9688 299.594 102.734 299.594 106.516C299.594 109.359 298.703 111.844 296.922 113.969C295.141 116.094 292.625 117.734 289.375 118.891C286.125 120.078 282.359 120.672 278.078 120.672ZM278.5 79.4219C280.344 79.4219 281.844 78.9375 283 77.9688C284.188 77 284.781 75.5312 284.781 73.5625C284.781 71.5938 284.188 70.125 283 69.1562C281.844 68.1562 280.344 67.6562 278.5 67.6562C276.656 67.6562 275.141 68.1562 273.953 69.1562C272.797 70.125 272.219 71.5938 272.219 73.5625C272.219 75.5312 272.797 77 273.953 77.9688C275.141 78.9375 276.656 79.4219 278.5 79.4219ZM279.016 110.922C281.828 110.922 283.953 110.562 285.391 109.844C286.859 109.125 287.594 108.125 287.594 106.844C287.594 105.969 287.172 105.266 286.328 104.734C285.516 104.234 284.188 103.812 282.344 103.469C280.531 103.156 277.984 102.891 274.703 102.672C273.297 103.172 272.203 103.828 271.422 104.641C270.641 105.453 270.25 106.297 270.25 107.172C270.25 108.359 270.969 109.281 272.406 109.938C273.844 110.594 276.047 110.922 279.016 110.922ZM318.203 103.703C316.047 103.703 313.906 103.469 311.781 103C309.656 102.531 307.891 101.859 306.484 100.984C305.109 100.109 304.422 99.1094 304.422 97.9844C304.422 97.2969 304.672 96.4375 305.172 95.4062C305.672 94.375 306.266 93.4844 306.953 92.7344C307.672 91.9531 308.297 91.5625 308.828 91.5625C309.109 91.5625 309.719 91.7812 310.656 92.2188C311.75 92.7188 312.797 93.125 313.797 93.4375C314.797 93.75 315.938 93.9062 317.219 93.9062C318.812 93.9062 320.016 93.6094 320.828 93.0156C321.641 92.4219 322.047 91.5469 322.047 90.3906C322.047 89.5156 321.797 88.7969 321.297 88.2344C320.828 87.6406 320.219 87.1562 319.469 86.7812C318.719 86.4062 317.656 85.9531 316.281 85.4219L314.922 84.9062C313.141 84.2188 311.578 83.4375 310.234 82.5625C308.891 81.6875 307.75 80.4219 306.812 78.7656C305.875 77.0781 305.406 74.9531 305.406 72.3906C305.406 69.5469 306.016 67.1094 307.234 65.0781C308.484 63.0156 310.25 61.4531 312.531 60.3906C314.812 59.2969 317.5 58.75 320.594 58.75C322.375 58.75 324.234 58.9219 326.172 59.2656C328.109 59.6094 329.734 60.1406 331.047 60.8594C332.391 61.5781 333.062 62.4844 333.062 63.5781C333.062 64.2031 332.859 65.0469 332.453 66.1094C332.078 67.1719 331.609 68.1094 331.047 68.9219C330.484 69.7344 329.953 70.1406 329.453 70.1406C329.297 70.1406 328.859 70 328.141 69.7188C327.172 69.3125 326.234 69 325.328 68.7812C324.453 68.5312 323.438 68.4062 322.281 68.4062C319.344 68.4062 317.875 69.375 317.875 71.3125C317.875 72.1875 318.141 72.9375 318.672 73.5625C319.234 74.1875 319.922 74.7031 320.734 75.1094C321.547 75.5156 322.688 76 324.156 76.5625C325.844 77.25 326.891 77.6875 327.297 77.875C329.484 78.9688 331.234 80.4219 332.547 82.2344C333.891 84.0156 334.562 86.4062 334.562 89.4062C334.562 92.25 333.922 94.75 332.641 96.9062C331.359 99.0625 329.484 100.734 327.016 101.922C324.547 103.109 321.609 103.703 318.203 103.703ZM348.203 103.141C344.891 103.141 343.234 102.266 343.234 100.516V47.1719C343.234 46.2656 343.625 45.5938 344.406 45.1562C345.219 44.6875 346.484 44.4531 348.203 44.4531H351.156C352.875 44.4531 354.125 44.6875 354.906 45.1562C355.719 45.5938 356.125 46.2656 356.125 47.1719V67.75H378.625V47.1719C378.625 46.2656 379.031 45.5938 379.844 45.1562C380.656 44.6875 381.922 44.4531 383.641 44.4531H386.547C389.891 44.4531 391.562 45.3594 391.562 47.1719V100.516C391.562 102.266 389.891 103.141 386.547 103.141H383.641C380.297 103.141 378.625 102.266 378.625 100.516V78.7656H356.125V100.516C356.125 102.266 354.469 103.141 351.156 103.141H348.203ZM414.531 103.703C410.344 103.703 407.25 102.609 405.25 100.422C403.25 98.2031 402.25 94.7812 402.25 90.1562V61.8906C402.25 61.0156 402.656 60.3594 403.469 59.9219C404.281 59.4844 405.547 59.2656 407.266 59.2656H409.562C411.281 59.2656 412.547 59.4844 413.359 59.9219C414.172 60.3594 414.578 61.0156 414.578 61.8906V88.2812C414.578 90 414.969 91.2969 415.75 92.1719C416.531 93.0469 417.812 93.4844 419.594 93.4844C421.125 93.4844 422.453 93 423.578 92.0312C424.734 91.0312 425.625 89.9062 426.25 88.6562V61.8906C426.25 61.0156 426.656 60.3594 427.469 59.9219C428.281 59.4844 429.547 59.2656 431.266 59.2656H433.562C435.281 59.2656 436.547 59.4844 437.359 59.9219C438.172 60.3594 438.578 61.0156 438.578 61.8906V88.2812C438.578 90.9062 438.641 92.9688 438.766 94.4688C438.922 95.9375 439.109 97.3125 439.328 98.5938C439.484 99.4375 439.562 100.031 439.562 100.375C439.562 101 438.984 101.516 437.828 101.922C436.672 102.328 435.344 102.625 433.844 102.812C432.375 103 431.188 103.094 430.281 103.094C429.281 103.094 428.562 102.703 428.125 101.922C427.719 101.109 427.391 99.9688 427.141 98.5L426.906 97.3281C425.594 99.1094 423.828 100.625 421.609 101.875C419.422 103.094 417.062 103.703 414.531 103.703ZM472.047 103.703C469.578 103.703 467.359 103.125 465.391 101.969C463.422 100.781 461.938 99.2656 460.938 97.4219L460.703 98.4062C460.422 99.625 460.203 100.484 460.047 100.984C459.828 101.859 459.344 102.438 458.594 102.719C457.844 103 456.734 103.141 455.266 103.141H454.281C450.938 103.141 449.266 102.266 449.266 100.516V42.8594C449.266 41.9531 449.672 41.2812 450.484 40.8438C451.297 40.375 452.562 40.1406 454.281 40.1406H456.578C459.922 40.1406 461.594 41.0469 461.594 42.8594V61.3281C463.938 59.6094 466.766 58.75 470.078 58.75C473.766 58.75 476.922 59.6719 479.547 61.5156C482.203 63.3281 484.219 65.9219 485.594 69.2969C486.969 72.6719 487.656 76.625 487.656 81.1562C487.656 85.875 486.984 89.9375 485.641 93.3438C484.328 96.7188 482.484 99.2969 480.109 101.078C477.766 102.828 475.078 103.703 472.047 103.703ZM468.438 93.5781C472.906 93.5781 475.141 89.4375 475.141 81.1562C475.141 72.6875 472.562 68.4531 467.406 68.4531C465.5 68.4531 463.562 68.9844 461.594 70.0469V88.6562C463.5 91.9375 465.781 93.5781 468.438 93.5781Z" fill="black"/>
<path d="M135.194 23.6803V23.384C135.194 23.1899 135.173 22.9039 135.138 22.5259C135.098 22.0415 135.022 21.5609 134.91 21.088C134.872 20.9399 134.826 20.7816 134.767 20.6079C134.752 20.5619 134.742 20.5364 134.714 20.4623C134.685 20.3882 134.657 20.3269 134.629 20.2682C134.568 20.1507 134.512 20.0128 134.438 19.9107C134.295 19.6631 134.103 19.4477 133.873 19.2781C133.643 19.1084 133.381 18.9881 133.102 18.9248C132.945 18.8905 132.785 18.8717 132.624 18.8686L132.259 18.8431L131.633 18.8661C131.422 18.8916 131.204 18.9274 130.985 18.9606C130.765 18.9938 130.553 19.0653 130.334 19.1291C129.468 19.4162 128.657 19.848 127.935 20.4061C126.482 21.5069 125.282 22.8758 124.012 24.2064C122.768 25.5696 121.421 26.835 119.982 27.9914C119.263 28.5513 118.508 29.0632 117.722 29.5237C116.954 29.9774 116.153 30.3744 115.326 30.7113C114.926 30.8901 114.509 31.0204 114.108 31.171L112.77 31.6818L112.114 31.9372L111.493 32.2335L110.288 32.8158C109.904 33.0227 109.542 33.2423 109.182 33.4466C108.822 33.6509 108.467 33.8476 108.16 34.0723C107.854 34.2971 107.524 34.5014 107.22 34.7057C107.07 34.8079 106.916 34.9049 106.776 35.0071L106.367 35.3187C105.897 35.6813 105.478 35.9827 105.134 36.2739L104.242 37.04L103.892 37.3414L103.604 37.6096L103.154 38.0335C101.884 39.2115 100.779 40.555 99.8674 42.0279C99.4719 42.6752 99.1154 43.3456 98.7998 44.0353C98.6466 44.3699 98.4985 44.7121 98.3554 45.0697C97.9902 44.9113 97.6225 44.753 97.2368 44.6074L95.3699 43.8923C92.6436 42.9045 89.8566 42.0933 87.0261 41.4635C81.2529 40.1835 75.3292 39.7167 69.4268 40.0767C68.7576 40.1048 68.1064 40.1789 67.473 40.2248C67.1537 40.2478 66.8422 40.2912 66.5357 40.3219L65.6878 40.4164C65.0901 40.4904 64.5334 40.5747 64.0277 40.6437C63.0061 40.802 62.2016 40.9425 61.6602 41.0523C59.9703 41.3645 58.3228 41.8737 56.7515 42.5694C55.8435 42.9786 54.9668 43.4541 54.1286 43.9919L53.9242 44.0404C53.8196 43.4996 53.6849 42.965 53.5207 42.4391C52.9768 40.7544 52.1323 39.1822 51.0281 37.7986C50.5172 37.138 49.9653 36.5102 49.3757 35.9189C49.0028 35.5358 48.5712 35.1373 48.0987 34.7287L47.759 34.4427C47.6313 34.3354 47.5036 34.2307 47.3606 34.1311C47.0848 33.9293 46.8166 33.7122 46.5229 33.5232C46.2292 33.3342 45.938 33.1248 45.6264 32.946C45.3149 32.7673 45.0058 32.5732 44.6738 32.4097L44.1835 32.1543C44.0149 32.07 43.8438 31.9985 43.6727 31.9194L43.1619 31.6844L42.6281 31.4775L42.0892 31.2707L41.535 31.0944L40.4726 30.7548C39.7932 30.5377 39.0934 30.3333 38.4294 30.0626C38.0897 29.9349 37.7424 29.8072 37.4078 29.677L36.4016 29.2351C35.0537 28.6324 33.7666 27.9021 32.5578 27.0541C31.3304 26.173 30.1601 25.2151 29.0538 24.186C27.9199 23.1644 26.7936 22.0892 25.6239 21.1008C24.4541 20.1124 23.2793 19.1777 22.0943 18.3578C20.9628 17.5302 19.7672 16.7941 18.5187 16.1563C17.9245 15.8532 17.3121 15.5871 16.685 15.3595C16.0771 15.1409 15.4505 14.9784 14.813 14.8743C14.1839 14.7719 13.5439 14.7547 12.9103 14.8232C11.7598 14.9445 10.6793 15.4345 9.83018 16.2202C9.65652 16.3862 9.49306 16.5522 9.35004 16.7157C9.20702 16.8791 9.07421 17.0375 8.9695 17.1932C8.63689 17.6576 8.35438 18.1558 8.12669 18.6796L7.95813 19.0781C7.91982 19.1675 7.9045 19.2134 7.9045 19.2134C7.9045 19.2134 7.83299 19.3999 7.71295 19.7498C7.54991 20.2532 7.41267 20.7647 7.30177 21.2821C7.13514 22.0675 7.01067 22.8612 6.92889 23.6599C6.91101 23.8897 6.88292 24.1221 6.86759 24.3724C6.85227 24.6227 6.84716 24.8832 6.83695 25.1565C6.81297 25.7263 6.82662 26.2971 6.87781 26.8651C6.9951 28.1478 7.26958 29.4113 7.69508 30.6271C8.1318 31.904 8.68601 33.1555 9.22745 34.4325C9.76889 35.7094 10.3078 37.0196 10.7879 38.3885C11.0127 39.0755 11.2553 39.7677 11.4417 40.4828C11.5388 40.8403 11.6486 41.1953 11.7405 41.5554L12.0036 42.6511C12.19 43.379 12.3075 44.1298 12.4505 44.8756L12.5553 45.4375C12.5885 45.6239 12.6089 45.8154 12.637 46.0019L12.7953 47.1384L12.9613 48.3055C13.0277 48.7142 13.066 49.1254 13.1605 49.5289C13.255 49.9324 13.3138 50.3359 13.4159 50.7318C13.5181 51.1277 13.6203 51.5235 13.7352 51.9143C14.1899 53.4373 14.7814 54.9162 15.5025 56.3326C15.8524 57.0196 16.2176 57.6888 16.6033 58.3247C16.7897 58.6491 16.9915 58.9555 17.1881 59.262L17.4844 59.7192L17.7628 60.1201C18.4526 61.1194 19.1943 62.0818 19.9847 63.0036C20.6539 63.7953 21.2285 64.4031 21.6116 64.8041C22.8016 66.058 24.1474 67.154 25.6162 68.0655C26.0657 68.3413 26.5228 68.5916 26.9902 68.8317C26.9847 68.8553 26.9805 68.8792 26.9774 68.9032C26.4292 70.1154 25.97 71.3659 25.6034 72.6448C25.15 74.2853 24.8574 75.966 24.73 77.6633C24.6738 78.3452 24.5767 79.451 24.4746 81.7496C24.3852 83.7238 24.3571 87.0567 24.5308 89.8967C24.6099 91.3167 24.7223 92.6116 24.827 93.5514C24.8755 94.0214 24.9266 94.4019 24.9573 94.665L25.0083 95.0762C25.0083 95.0762 25.0748 95.564 25.1871 96.3531C25.2995 97.1423 25.491 98.2635 25.7464 99.5022C26.0018 100.741 26.3339 102.107 26.7221 103.417C27.1103 104.728 27.5521 105.971 27.9633 107.013C28.4373 108.214 28.9805 109.387 29.5901 110.525C29.8251 110.975 30.055 111.353 30.2389 111.682L30.7496 112.492C31.6784 113.99 32.8525 115.321 34.223 116.43C34.9829 117.028 35.7998 117.55 36.6621 117.988C36.8255 118.289 37.0043 118.585 37.1958 118.869C37.6081 119.466 38.0731 120.025 38.5852 120.539C39.0977 121.04 39.6485 121.5 40.2325 121.916C40.8121 122.317 41.4179 122.68 42.0458 123.001C44.5436 124.26 47.2329 124.858 49.8175 125.126C52.3325 125.416 54.8724 125.416 57.3874 125.126C58.5757 124.985 59.7549 124.777 60.9195 124.503C61.4916 124.383 62.0433 124.212 62.5924 124.066C63.1415 123.921 63.6753 123.739 64.1912 123.555C65.1923 123.205 66.1424 122.812 67.0439 122.393C67.6027 123.058 68.2255 123.666 68.9032 124.209C69.9614 125.031 71.1364 125.691 72.3894 126.165C72.6448 126.27 72.9717 126.39 73.462 126.559C73.7021 126.648 73.9907 126.73 74.3227 126.83C74.6547 126.929 75.0429 127.031 75.4873 127.144C75.8346 127.241 76.3173 127.32 76.8307 127.427C77.0861 127.473 77.3619 127.509 77.6301 127.547L78.031 127.606L78.4269 127.644L79.1599 127.711C79.3872 127.726 79.5915 127.726 79.7652 127.734L80.3245 127.754H80.4522H80.7995C81.0932 127.754 81.5044 127.754 81.9641 127.718C82.9078 127.661 83.8465 127.539 84.7735 127.353L85.6316 127.174C85.9023 127.11 86.1424 127.031 86.3978 126.967L87.0797 126.778L87.6722 126.574C88.04 126.441 88.3644 126.339 88.6325 126.227L89.3068 125.943C89.6566 125.802 89.9977 125.64 90.3283 125.458C90.645 125.287 90.9439 125.121 91.2273 124.947C91.7816 124.595 92.2668 124.227 92.7291 123.867C93.1913 123.507 93.5872 123.078 94.006 122.659C94.1848 122.457 94.3636 122.25 94.5424 122.036C95.9871 122.679 97.4725 123.226 98.9888 123.675C101.416 124.402 103.918 124.847 106.446 125.003C109.144 125.192 111.853 124.909 114.453 124.166C115.805 123.764 117.095 123.176 118.284 122.416C119.506 121.634 120.572 120.631 121.428 119.459C121.851 118.866 122.217 118.235 122.521 117.574C122.818 116.916 123.054 116.232 123.226 115.531C123.4 114.843 123.511 114.14 123.558 113.431C123.623 112.741 123.641 112.046 123.612 111.353C123.594 111.003 123.54 110.655 123.507 110.308L123.446 109.797L123.338 109.286C123.259 108.949 123.205 108.604 123.106 108.265C123.006 107.925 122.899 107.608 122.794 107.282C122.745 107.118 122.686 106.957 122.615 106.801L122.416 106.331L122.22 105.862C122.151 105.706 122.066 105.563 121.99 105.412C121.834 105.113 121.683 104.814 121.52 104.523L120.991 103.68C120.283 102.603 119.478 101.593 118.585 100.662C118.358 100.406 118.118 100.169 117.875 99.9363C118.724 99.1005 119.473 98.1689 120.107 97.1602C121.028 95.6813 121.729 94.077 122.189 92.3971C122.741 90.4408 123.149 88.4468 123.41 86.431C123.463 85.9764 123.54 85.5116 123.576 85.034C123.612 84.5564 123.657 84.066 123.698 83.568C123.744 82.572 123.801 81.5376 123.778 80.4726C123.765 78.2575 123.573 76.047 123.203 73.863C122.83 71.7603 122.283 69.6922 121.568 67.6799C121.894 67.4711 122.208 67.2443 122.508 67.0005C123.107 66.5084 123.659 65.9621 124.158 65.3685C125.261 64.0246 126.17 62.5321 126.858 60.9349C127.269 60.0154 128.04 58.2481 129.054 55.3162C129.999 52.5911 130.985 49.2812 131.851 45.8308C132.716 42.3804 133.472 38.7946 134.027 35.5307C134.581 32.2667 134.938 29.3245 135.086 27.1767C135.181 26.0138 135.217 24.8468 135.194 23.6803Z" stroke="#EAEAEA" stroke-width="8" stroke-miterlimit="10"/>
<path d="M53.6331 44.8858C53.6331 44.8858 71.5414 35.8831 97.7935 46.1755C97.7935 46.1755 103.619 35.6481 116.024 31.692C128.428 27.736 121.459 23.9638 130.908 20.0077C140.358 16.0516 125.655 60.2019 125.655 60.2019C125.655 60.2019 121.775 67.2457 120.358 68.1907C120.358 68.1907 125.68 87.3453 116.951 100.644C116.951 100.644 128.581 111.411 118.159 121.195C113.337 124.296 107.55 125.134 101.668 123.308L95.3137 121.264C92.6729 123.027 90.9132 126.549 81.226 126.549C71.5389 126.549 66.2599 121.264 66.2599 121.264C62.1531 124.344 52.1722 125.667 44.2473 123.027C44.2473 123.027 33.6816 115.983 31.8785 112.045C31.8785 112.045 21.4532 97.1321 27.1026 68.183C27.1026 68.183 17.607 62.5949 14.2077 48.8342C10.8083 35.0735 7.91727 30.2848 7.9377 27.6134C7.95813 24.9419 9.06655 11.9474 16.8561 16.0899C24.6457 20.2324 29.7434 29.7766 42.3752 32.757C50.3742 34.7338 53.6331 44.8858 53.6331 44.8858Z" fill="#FFFCF0"/>
<path d="M72.8057 41.2643C72.8057 41.2643 77.6403 72.3025 69.5902 87.5471C61.2822 92.1442 59.4204 91.3065 50.1674 95.3392C40.9144 99.3719 37.3465 107.7 37.3465 107.7C37.3465 107.7 35.8448 116.721 36.3249 117.15C36.8051 117.579 20.5466 104.457 27.2482 68.2826C27.2482 68.2826 16.0235 60.2709 14.3635 48.9492C12.7034 37.6275 8.98227 30.41 8.98227 30.41C8.98227 30.41 5.27137 18.5392 13.0431 16.0899C20.8148 13.6407 25.5753 28.0935 38.3272 31.4443C51.0791 34.7951 53.227 44.2141 53.227 44.2141C53.227 44.2141 66.007 40.9374 72.8057 41.2643Z" fill="#666666"/>
<path d="M90.4918 43.6854C90.4918 43.6854 85.1285 65.0672 90.4918 87.5471C90.4918 87.5471 110.326 93.4748 117.025 100.71C117.025 100.71 127.044 87.3096 120.427 68.2749C120.427 68.2749 124.62 66.1577 129.667 48.9926C134.714 31.8274 134.849 22.1888 132.77 20.1763C130.691 18.1637 122.631 27.4397 122.631 27.4397C122.631 27.4397 119.855 30.0396 111.608 33.6177C103.361 37.1958 97.8906 46.2879 97.8906 46.2879L90.4918 43.6854Z" fill="#666666"/>
<path d="M46.8115 50.5939C46.8115 50.5939 32.8745 24.5997 11.9704 20.8479C11.9704 20.8479 9.82763 22.1888 11.4366 30.7624C13.0456 39.336 13.8169 48.7065 15.2216 52.2974C16.6263 55.8882 21.8874 65.0671 29.9273 70.0244C29.9273 70.0244 37.699 59.9746 39.8417 55.9546C41.9845 51.9347 46.8115 50.5939 46.8115 50.5939Z" fill="#A05858"/>
<path d="M108.679 52.2974C108.679 52.2974 116.644 57.9646 120.427 68.2826C120.427 68.2826 132.765 54.573 133.863 23.0776C133.863 23.0776 132.198 19.3845 126.666 26.0657C121.134 32.7468 108.679 52.2974 108.679 52.2974Z" fill="#A05858"/>
<path d="M81.742 104.201C81.742 104.201 89.8201 102.472 90.4918 96.5676C90.4918 96.5676 82.051 88.939 72.8057 96.5676C72.8057 96.5651 75.9368 104.201 81.742 104.201Z" fill="#333333"/>
<path opacity="0.1" d="M66.4029 121.568C70.5864 121.21 74.5355 119.484 77.6403 116.657C82.715 111.958 86.7758 121.53 94.8565 121.104C94.8565 121.104 87.1946 117.273 85.1515 114.619C83.1083 111.965 81.5759 109.069 77.6454 113.041C73.7149 117.012 69.4165 120.588 66.4029 121.568Z" fill="#333333"/>
<path opacity="0.5" d="M111.072 53.6765C111.072 53.6765 115.641 46.5254 120.161 43.9485C120.418 43.806 120.712 43.7436 121.005 43.7695C121.298 43.7953 121.576 43.9082 121.805 44.0936C122.033 44.2789 122.2 44.5283 122.286 44.8097C122.371 45.0911 122.37 45.3915 122.283 45.6724C121.709 47.5853 121.101 50.1955 121.262 52.2974C121.262 52.2974 121.43 52.2642 121.686 52.2386C121.975 52.2119 122.266 52.2582 122.533 52.3732C122.8 52.4882 123.034 52.6683 123.213 52.897C123.392 53.1257 123.511 53.3957 123.559 53.6822C123.606 53.9688 123.582 54.2627 123.486 54.5372C122.85 56.3505 122.018 60.064 122.465 66.4693L120.488 67.7463C120.488 67.7463 117.043 58.7691 111.072 53.6765Z" fill="#331D1D"/>
<path opacity="0.5" d="M43.2743 52.2974C43.2743 52.2974 39.9158 44.4363 30.198 43.2104C29.8893 43.1747 29.5765 43.2126 29.2853 43.3211C28.994 43.4296 28.7327 43.6055 28.5226 43.8346C28.3125 44.0636 28.1597 44.3391 28.0767 44.6386C27.9937 44.9381 27.9828 45.253 28.045 45.5575C28.4996 47.8688 29.0666 51.1149 28.8112 52.2974C28.1169 52.2161 27.4162 52.2042 26.7195 52.2616C26.4374 52.2873 26.1683 52.3926 25.9438 52.5653C25.7192 52.738 25.5484 52.971 25.4512 53.2371C25.354 53.5032 25.3345 53.7914 25.3949 54.0682C25.4553 54.345 25.5932 54.5989 25.7924 54.8003C28.1165 57.1678 32.2054 62.3217 31.1276 68.4358C31.1276 68.4358 36.4169 61.9845 38.3247 58.6338C40.2325 55.283 43.2743 52.2974 43.2743 52.2974Z" fill="#331D1D"/>
<path opacity="0.3" d="M100.751 42.3063C100.751 42.3063 109.58 45.1156 111.072 48.3209L108.679 52.2974C108.679 52.2974 99.1191 45.8665 97.8881 46.2879L100.751 42.3063Z" fill="#333333"/>
<path opacity="0.1" d="M121.888 107.7C121.54 111.886 119.936 114.941 117.778 117.183C117.778 117.196 117.806 117.204 117.817 117.216C118.154 117.666 117.602 118.652 116.583 119.418C115.564 120.184 114.504 120.439 114.147 120.013C108.423 123.351 101.647 123.333 101.647 123.333C127.82 128.272 121.888 107.7 121.888 107.7ZM118.961 119.163C118.705 119.418 118.417 119.556 118.302 119.449C118.187 119.341 118.302 119.035 118.539 118.769C118.777 118.504 119.083 118.373 119.198 118.481C119.313 118.588 119.211 118.894 118.961 119.163ZM119.349 117.247C119.145 117.602 118.838 117.809 118.667 117.712C118.496 117.615 118.524 117.244 118.728 116.889C118.933 116.534 119.239 116.328 119.41 116.427C119.581 116.527 119.553 116.892 119.349 117.247Z" fill="#333333"/>
<path opacity="0.3" d="M112.315 55.4439C113.968 59.8391 115.22 64.3746 116.057 68.9952C116.693 69.4625 117.293 70.8723 117.52 72.6116C117.776 74.527 117.487 76.1871 116.879 76.6545C117.004 79.7719 116.766 82.8932 116.172 85.956C116.11 85.9161 116.044 85.8835 115.975 85.8589C115.061 85.6035 113.932 86.7375 113.472 88.3976C113.013 90.0576 113.365 91.6104 114.277 91.8684C114.305 91.8684 114.336 91.8684 114.364 91.8684C113.041 94.9331 111.692 96.3685 111.692 96.3685C113.465 96.1897 117.025 100.71 117.025 100.71C131.764 74.1771 112.315 55.4439 112.315 55.4439Z" fill="#333333"/>
<path opacity="0.3" d="M115.125 83.9384C115.125 83.2514 114.869 82.6971 114.532 82.6971C114.195 82.6971 113.937 83.2514 113.937 83.9384C113.937 84.6254 114.193 85.177 114.532 85.177C114.872 85.177 115.125 84.6228 115.125 83.9384Z" fill="#333333"/>
<path opacity="0.15" d="M86.0198 94.3866C86.0198 94.3866 85.956 95.5614 85.7031 97.104C85.6385 97.0749 85.5694 97.0567 85.4988 97.0504C85.0263 97.0504 84.6458 97.5612 84.6458 98.192C84.6318 98.4106 84.6815 98.6285 84.789 98.8194C84.8964 99.0102 85.0569 99.1658 85.2511 99.2672C84.799 101.014 84.0967 102.792 82.9959 103.79L84.5845 103.514C84.5845 103.514 89.6311 101.492 90.4918 96.5651C90.4918 96.5651 88.3848 94.167 86.0198 94.3866Z" fill="black"/>
<path opacity="0.15" d="M83.5501 101.254C83.7161 101.277 83.8847 101.024 83.9281 100.695C83.9715 100.365 83.8719 100.077 83.7059 100.056C83.5399 100.036 83.3714 100.286 83.3279 100.616C83.2845 100.945 83.3867 101.234 83.5501 101.254Z" fill="black"/>
<path d="M52.706 44.9675C54.3942 44.7121 55.7989 44.5972 57.2521 44.4006C58.7053 44.2039 60.2095 43.9587 62.1225 43.6037C62.6332 43.5016 63.4199 43.3739 64.3878 43.2206L65.9789 43.0086L66.7911 42.9193C67.0873 42.8886 67.3862 42.8477 67.6901 42.8273C68.2979 42.7813 68.9236 42.7124 69.5647 42.6843C75.2246 42.3431 80.9044 42.7901 86.4412 44.0123C89.1595 44.6173 91.8364 45.3953 94.4555 46.3416L96.2433 47.026C96.8282 47.2482 97.3824 47.5062 97.9289 47.7335C99.0297 48.1804 100.023 48.6835 100.95 49.1177C101.418 49.3271 101.836 49.5672 102.243 49.7817L103.389 50.3998C103.752 50.5837 104.071 50.7905 104.367 50.9744L105.185 51.4852L105.841 51.8913C106.033 52.0062 106.178 52.1263 106.306 52.2131L106.689 52.4838L107.578 53.1172C107.721 53.2245 107.887 53.3266 108.053 53.4645L108.592 53.9064C108.977 54.2282 109.432 54.5755 109.91 54.9944L111.427 56.4067C111.937 56.9532 112.492 57.5279 113.056 58.1536L113.878 59.1548L114.305 59.6655C114.44 59.8443 114.56 60.0333 114.706 60.2198L115.526 61.3639L116.292 62.5949C117.361 64.3469 118.256 66.1998 118.963 68.1268C119.695 70.1292 120.249 72.1923 120.618 74.2921C120.964 76.3369 121.145 78.4064 121.157 80.4803C121.178 81.4789 121.124 82.452 121.083 83.3893C121.042 83.8566 121.004 84.3138 120.966 84.7633C120.927 85.2128 120.861 85.6495 120.812 86.0786C120.571 87.9716 120.198 89.8456 119.696 91.6871C119.173 93.5412 118.762 94.9944 118.373 96.3736C118.003 97.8443 117.553 99.2937 117.025 100.715C118.229 99.6934 119.268 98.4927 120.107 97.1551C121.028 95.6762 121.729 94.0719 122.189 92.3919C122.741 90.4357 123.149 88.4417 123.41 86.4259C123.463 85.9713 123.54 85.5065 123.576 85.0289C123.612 84.5513 123.657 84.0609 123.698 83.5629C123.744 82.5669 123.801 81.5325 123.778 80.4675C123.765 78.2524 123.573 76.0419 123.203 73.8579C122.804 71.6003 122.206 69.3824 121.415 67.2304C120.649 65.1485 119.681 63.1468 118.524 61.2541C118.243 60.8046 117.97 60.3551 117.689 59.9209L116.803 58.6848C116.657 58.4831 116.517 58.2813 116.369 58.0872L115.909 57.5253L115.025 56.4425C114.417 55.7657 113.817 55.145 113.265 54.5602L111.633 53.0431C111.123 52.5936 110.635 52.2208 110.221 51.876L109.641 51.4061C109.465 51.2579 109.286 51.1507 109.131 51.0332L108.178 50.3564L107.777 50.0576C107.639 49.9656 107.481 49.8379 107.279 49.7128L106.582 49.2914L105.713 48.7525C105.397 48.5558 105.06 48.3362 104.674 48.1395L103.461 47.4857C103.034 47.2584 102.585 47.003 102.102 46.7859C101.142 46.3364 100.11 45.8129 98.9684 45.3481C98.3989 45.1105 97.8242 44.8373 97.2138 44.6125L95.3469 43.8974C92.6206 42.9097 89.8336 42.0984 87.0031 41.4686C81.2299 40.1886 75.3062 39.7219 69.4038 40.0818C68.7346 40.1099 68.0834 40.184 67.45 40.2299C67.1308 40.2529 66.8192 40.2963 66.5127 40.327L65.6648 40.4215C65.0672 40.4956 64.5104 40.5798 64.0047 40.6488C62.9831 40.8071 62.1786 40.9476 61.6372 41.0574C59.9473 41.3696 58.2999 41.8788 56.7285 42.5745C55.3027 43.2197 53.9535 44.0224 52.706 44.9675Z" fill="#202020"/>
<path d="M100.409 91.0613C101.525 91.7586 102.426 92.3715 103.402 92.9487C104.378 93.5259 105.417 94.0852 106.763 94.7569C107.126 94.9382 107.67 95.2141 108.336 95.5742C108.671 95.7479 109.028 95.9598 109.417 96.1744L109.608 96.2816L109.94 96.4783L110.612 96.8793C111.054 97.1602 111.508 97.4386 111.953 97.7425C112.397 98.0464 112.852 98.3478 113.291 98.6798C113.73 99.0118 114.175 99.3489 114.614 99.7014C114.836 99.8725 115.046 100.064 115.26 100.248C115.475 100.432 115.694 100.618 115.901 100.815C116.31 101.211 116.741 101.599 117.127 102.028C117.937 102.873 118.669 103.791 119.313 104.768L119.783 105.519C119.926 105.775 120.059 106.03 120.197 106.303C120.266 106.436 120.342 106.559 120.401 106.699L120.572 107.11L120.746 107.522C120.808 107.656 120.86 107.795 120.902 107.938C120.991 108.221 121.081 108.505 121.172 108.791C121.264 109.077 121.303 109.371 121.372 109.662L121.466 110.101L121.515 110.548C121.543 110.847 121.594 111.143 121.607 111.444C121.631 112.05 121.615 112.657 121.558 113.26C121.517 113.863 121.423 114.462 121.277 115.048C121.133 115.629 120.937 116.195 120.692 116.741C120.443 117.279 120.143 117.792 119.798 118.274C119.089 119.245 118.204 120.075 117.191 120.723C116.16 121.38 115.043 121.89 113.871 122.237C111.497 122.916 109.024 123.176 106.561 123.004C104.186 122.857 101.835 122.438 99.5558 121.755C95.5745 120.589 91.8386 118.708 88.5304 116.205C87.243 115.225 86.0386 114.14 84.9293 112.962C84.4185 112.451 83.9996 111.94 83.6089 111.455C83.5297 111.358 83.3535 111.161 83.2181 111.018C83.0661 110.872 82.9021 110.74 82.7278 110.622C82.4029 110.403 82.0426 110.241 81.6628 110.145C81.0204 109.981 80.345 110.002 79.7141 110.206C79.2505 110.358 78.8248 110.607 78.4652 110.936C78.3222 111.066 78.2098 111.207 78.1128 111.304L77.9442 111.503L77.8063 111.667L77.2546 112.295C76.892 112.704 76.3429 113.294 75.6073 114.014C73.5596 116.025 71.2709 117.775 68.7934 119.224C67.1183 120.199 65.3551 121.014 63.5271 121.658C63.0419 121.842 62.5362 121.985 62.028 122.148C61.5197 122.312 61.0064 122.444 60.4598 122.557C59.3692 122.813 58.265 123.007 57.1525 123.139C54.7876 123.41 52.3995 123.41 50.0346 123.139C47.6007 122.884 45.1463 122.322 42.955 121.216C42.4117 120.939 41.8878 120.626 41.3869 120.279C40.8952 119.929 40.4315 119.541 40.0001 119.119C39.5783 118.696 39.1953 118.236 38.8559 117.745C38.5247 117.252 38.2432 116.728 38.0157 116.18C37.5654 115.072 37.3338 113.889 37.3337 112.693C37.3423 111.484 37.5343 110.283 37.9033 109.131C38.6312 106.806 39.9643 104.699 41.5273 102.901C42.3029 102.011 43.1456 101.181 44.0481 100.419C44.4925 100.041 44.942 99.6809 45.4017 99.3413C45.6341 99.1727 45.8589 98.999 46.0964 98.8305L46.4437 98.5904L46.6199 98.4704L46.694 98.4218C47.9117 97.6217 49.1823 96.905 50.4968 96.2765C51.8377 95.6355 52.8925 95.1324 53.8885 94.6113C54.8845 94.0903 55.8295 93.5515 56.9941 92.9308C55.7955 92.9172 54.5983 93.0173 53.4186 93.2297C52.1112 93.4884 50.8426 93.9142 49.6438 94.4964C48.2398 95.1571 46.8845 95.9167 45.5881 96.7694L45.5064 96.8205L45.32 96.9482L44.9471 97.2036C44.6917 97.3722 44.4516 97.5586 44.2039 97.7399C43.711 98.1052 43.2257 98.4934 42.7456 98.8994C41.7695 99.7263 40.8569 100.625 40.0154 101.589C38.2102 103.604 36.8392 105.97 35.9878 108.538C35.5579 109.887 35.3357 111.293 35.3289 112.709C35.3277 114.164 35.6106 115.606 36.1615 116.953C36.4369 117.628 36.7791 118.273 37.1831 118.879C37.5953 119.476 38.0603 120.035 38.5724 120.549C39.0849 121.05 39.6357 121.511 40.2197 121.926C40.7993 122.328 41.4051 122.69 42.033 123.011C44.5308 124.27 47.2201 124.868 49.8047 125.139C51.081 125.281 52.3643 125.35 53.6484 125.348C54.8937 125.343 56.1376 125.269 57.3746 125.126C58.5629 124.985 59.7422 124.777 60.9068 124.503C61.4789 124.383 62.0305 124.212 62.5796 124.066C63.1287 123.921 63.6625 123.739 64.1784 123.555C66.1283 122.868 68.0094 121.999 69.7971 120.961C72.4172 119.424 74.8372 117.57 77.0018 115.439C77.768 114.673 78.3528 114.057 78.7385 113.626L79.3208 112.962L79.4664 112.79L79.6452 112.578C79.7039 112.522 79.7422 112.469 79.8086 112.41C79.9601 112.27 80.1394 112.164 80.3347 112.098C80.604 112.014 80.8912 112.006 81.1648 112.075C81.3266 112.115 81.4797 112.185 81.6168 112.28C81.6912 112.33 81.7613 112.386 81.8262 112.448C81.8952 112.522 81.936 112.561 82.0586 112.704C82.48 113.214 82.9449 113.766 83.4735 114.32C84.657 115.579 85.9426 116.737 87.3172 117.783C90.8148 120.442 94.7673 122.441 98.9812 123.683C101.408 124.41 103.91 124.855 106.439 125.011C109.136 125.2 111.846 124.916 114.445 124.173C115.798 123.772 117.087 123.183 118.276 122.424C119.499 121.642 120.565 120.639 121.42 119.466C121.843 118.874 122.209 118.243 122.513 117.582C122.81 116.924 123.046 116.24 123.218 115.538C123.392 114.85 123.504 114.148 123.55 113.439C123.619 112.746 123.639 112.049 123.612 111.353C123.594 111.003 123.54 110.655 123.507 110.308L123.446 109.797L123.338 109.286C123.259 108.949 123.205 108.604 123.106 108.265C123.006 107.925 122.899 107.608 122.794 107.282C122.745 107.118 122.686 106.957 122.615 106.801L122.416 106.331L122.22 105.862C122.151 105.706 122.066 105.563 121.99 105.412C121.834 105.113 121.683 104.814 121.52 104.523L120.991 103.68C120.283 102.603 119.478 101.593 118.585 100.662C118.164 100.192 117.702 99.7754 117.26 99.3464C117.035 99.137 116.8 98.9429 116.573 98.7411C116.346 98.5393 116.118 98.3401 115.883 98.1588C115.416 97.7834 114.954 97.413 114.479 97.0759C114.004 96.7388 113.536 96.4042 113.069 96.085C112.601 95.7657 112.124 95.4746 111.659 95.1809L110.959 94.7518L110.612 94.5449L110.41 94.4326C110.007 94.2104 109.644 93.9907 109.284 93.8094C108.592 93.4391 108.025 93.1556 107.644 92.9691C106.464 92.3815 105.224 91.9217 103.946 91.5977C102.785 91.3136 101.602 91.1341 100.409 91.0613Z" fill="#202020"/>
<path d="M88.349 86.2369C88.0374 85.2817 87.6773 84.7045 86.7911 84.2831C85.6957 83.7918 84.5498 83.4218 83.3739 83.1798C82.7337 83.046 82.0852 82.9547 81.4329 82.9065C81.1775 82.881 80.9604 82.8785 80.8098 82.8708H80.5773H80.3424C80.1942 82.8708 79.9797 82.8708 79.7167 82.8708C79.0578 82.8975 78.4015 82.9701 77.7527 83.0879C77.0369 83.2192 76.3331 83.4088 75.6482 83.6548C75.3341 83.7596 75.0634 83.8847 74.8309 83.9792C74.5985 84.0737 74.4172 84.1656 74.2972 84.2346C73.4058 84.6764 73.0943 85.2996 72.8057 86.2446C73.8119 86.3518 74.3789 86.3876 75.1579 86.0326C75.2626 85.9815 75.4132 85.9049 75.6201 85.8257C75.827 85.7465 76.0543 85.6393 76.3225 85.5524C76.905 85.3443 77.5027 85.1812 78.1102 85.0646C78.6656 84.9639 79.227 84.8999 79.7907 84.8731C80.0155 84.8731 80.1994 84.8731 80.3296 84.8731H80.5288H80.7306C80.8608 84.8731 81.0447 84.8731 81.2695 84.9037C81.8379 84.9524 82.4027 85.0377 82.9602 85.1591C83.9956 85.3812 85.0068 85.7046 85.979 86.1245C86.3288 86.2822 86.7064 86.369 87.0899 86.3799C87.5121 86.3575 87.9326 86.3098 88.349 86.2369Z" fill="#202020"/>
<path d="M27.2482 68.2826C26.5798 69.6867 26.0271 71.143 25.5958 72.6371C25.1423 74.2776 24.8498 75.9584 24.7223 77.6556C24.6661 78.3375 24.5691 79.4434 24.4669 81.7419C24.3775 83.7161 24.3494 87.0491 24.5231 89.8891C24.6023 91.3091 24.7146 92.6039 24.8194 93.5438C24.8679 94.0137 24.919 94.3942 24.9496 94.6573L25.0007 95.0685L25.1795 96.3455C25.2969 97.1474 25.4834 98.2558 25.7388 99.4945C25.9942 100.733 26.3262 102.1 26.7144 103.41C27.1026 104.72 27.5444 105.964 27.9556 107.006C28.4296 108.207 28.9728 109.379 29.5825 110.517C29.8174 110.967 30.0473 111.345 30.2312 111.674L30.742 112.484C32.5029 115.356 35.1806 117.55 38.3426 118.713C37.3665 117.558 36.4525 116.352 35.6047 115.099C34.7874 113.917 33.9446 112.704 32.9307 111.097L32.4787 110.356C32.3127 110.053 32.1032 109.705 31.8887 109.291C31.3292 108.244 30.8296 107.165 30.3921 106.061C30.0115 105.1 29.5953 103.928 29.23 102.692C28.8648 101.456 28.543 100.164 28.3004 98.9863C28.0578 97.8089 27.8764 96.7464 27.759 95.9803L27.5827 94.7518C27.5827 94.7518 27.5112 94.1925 27.4167 93.2884C27.3222 92.3843 27.2124 91.1354 27.1383 89.7639C26.9749 87.021 27.0055 83.7825 27.0847 81.8594C27.1767 79.6145 27.266 78.5393 27.3146 77.8701C27.4601 75.9113 27.5163 74.3712 27.4882 72.8925C27.4601 71.4137 27.3401 69.9912 27.2482 68.2826Z" fill="#202020"/>
<path d="M80.8455 111.021C81.3244 110.597 81.7187 110.087 82.0076 109.516C82.2835 108.972 82.4911 108.395 82.6256 107.8C82.7631 107.179 82.8375 106.546 82.8478 105.91C82.8478 105.741 82.8478 105.57 82.8478 105.399C82.8478 105.31 82.8478 105.223 82.8478 105.144V105.075C82.8478 105.044 82.8478 105.075 82.8478 105.057C82.851 105.054 82.8551 105.053 82.8593 105.053C82.8635 105.053 82.8676 105.054 82.8708 105.057L83.0062 105.031C83.1211 105.008 83.2437 104.991 83.3739 104.955C84.1002 104.788 84.8065 104.544 85.4809 104.227C86.3033 103.84 87.0704 103.346 87.7616 102.756C88.5381 102.09 89.2204 101.322 89.7895 100.473C90.2979 99.7202 90.7259 98.9164 91.0664 98.0745L91.1686 97.8191L91.281 97.505C91.3831 97.2011 91.4649 96.9201 91.5236 96.6647L91.613 96.3021L91.6334 96.2178C91.6334 96.2025 91.6334 96.1922 91.6181 96.1846L91.5823 96.1565L91.4546 96.0543C91.2886 95.9241 91.1456 95.7989 91.0205 95.7172C90.8494 95.5844 90.6808 95.4618 90.5097 95.3392L90.2339 95.1528C90.0602 95.0328 89.8891 94.928 89.7231 94.8259C89.3962 94.6241 89.0999 94.4505 88.8266 94.3151C88.2877 94.0112 87.851 93.8043 87.5164 93.6485C86.8473 93.342 86.5868 93.2475 86.5868 93.2475L86.2344 93.1071C86.0019 93.0279 85.6699 92.8951 85.2434 92.7674C84.1167 92.4095 82.9517 92.1858 81.7726 92.1008C81.0347 92.0524 80.294 92.0661 79.5583 92.1417C79.1803 92.203 78.7921 92.2362 78.4193 92.3307C78.2303 92.3741 78.0387 92.4124 77.8523 92.4609L77.2981 92.6269C75.9478 93.0632 74.6854 93.735 73.5693 94.6114C73.3139 94.8106 73.0892 94.997 72.8721 95.1809L72.5324 95.4567C72.3511 95.6329 72.1544 95.8015 71.9986 95.9675L71.7611 96.2229C71.7458 96.2433 71.71 96.2587 71.7151 96.2868L71.7356 96.3685L71.7739 96.5294C71.8249 96.7439 71.8862 96.9533 71.945 97.1551C71.9731 97.2547 72.0012 97.3594 72.0344 97.4514L72.1008 97.6429C72.1391 97.7476 72.1748 97.8472 72.2131 97.9392C72.4341 98.5079 72.6988 99.0587 73.0049 99.5865C73.6921 100.83 74.7024 101.865 75.9292 102.582C77.0157 103.197 78.2437 103.517 79.4919 103.512C78.4944 102.963 77.5916 102.258 76.8179 101.423C76.0048 100.567 75.3013 99.6126 74.7237 98.5828C74.4723 98.1388 74.2538 97.677 74.0699 97.2011C74.0375 97.121 74.0069 97.0359 73.9779 96.9457L73.9447 96.8486L74.1822 96.6264C74.3687 96.4681 74.5704 96.3097 74.7799 96.1386C75.7137 95.412 76.7685 94.8561 77.8957 94.4964L78.3529 94.356C78.5061 94.3151 78.6644 94.287 78.8202 94.2487C79.1293 94.167 79.4511 94.144 79.7652 94.0904C80.3837 94.0264 81.0065 94.0145 81.627 94.0546C82.649 94.1267 83.6589 94.3196 84.6356 94.6292C85.011 94.7391 85.3073 94.8591 85.5141 94.928L85.8308 95.0532C85.8308 95.0532 86.0607 95.1375 86.6634 95.4133C86.9622 95.5563 87.3555 95.7428 87.8434 96.016C88.0988 96.1514 88.3541 96.3097 88.6504 96.4911C88.796 96.583 88.9492 96.6775 89.105 96.7822L89.34 96.9406C89.34 96.9099 89.3093 97.0274 89.2838 97.0887L89.1969 97.3109C88.909 98.027 88.5451 98.7103 88.1115 99.3489C87.6436 100.048 87.0825 100.681 86.4438 101.229C85.8895 101.704 85.2735 102.103 84.6126 102.414C84.0667 102.672 83.4948 102.87 82.9066 103.006C82.7993 103.037 82.6971 103.052 82.6026 103.073L82.4392 103.103C82.3421 103.121 82.2502 103.142 82.1582 103.152L81.2388 103.269L80.6744 103.343C80.5314 103.32 80.6131 103.461 80.6182 103.545L80.6693 103.826C80.7408 104.201 80.8021 104.556 80.8583 104.901C80.8864 105.123 80.917 105.341 80.9451 105.555C80.9656 105.708 80.986 105.859 81.0013 106.007C81.0728 106.6 81.1316 107.149 81.1673 107.685C81.21 108.22 81.2194 108.758 81.1954 109.294C81.1711 109.884 81.053 110.467 80.8455 111.021Z" fill="#202020"/>
<path d="M66.4029 121.568C67.109 122.552 67.9469 123.435 68.893 124.191C69.9531 125.021 71.1317 125.686 72.3894 126.165C72.6447 126.27 72.9717 126.39 73.462 126.559C73.7021 126.648 73.9907 126.73 74.3227 126.83C74.6547 126.929 75.0429 127.031 75.4873 127.144C75.8346 127.241 76.3173 127.32 76.8307 127.427C77.0861 127.473 77.3619 127.509 77.6301 127.547L78.031 127.606L78.4269 127.644L79.1599 127.711C79.3872 127.726 79.5915 127.726 79.7652 127.734L80.3245 127.754H80.4522H80.7995C81.0932 127.754 81.5044 127.754 81.9641 127.718C82.9078 127.661 83.8465 127.539 84.7735 127.353L85.6316 127.174C85.9023 127.11 86.1424 127.031 86.3978 126.967L87.0797 126.778L87.6722 126.574C88.04 126.441 88.3644 126.339 88.6325 126.227L89.3068 125.943C89.6566 125.802 89.9977 125.64 90.3283 125.458C90.645 125.287 90.9438 125.121 91.2273 124.947C91.7815 124.595 92.2668 124.227 92.7291 123.867C93.1913 123.507 93.5872 123.078 94.006 122.659C94.4249 122.24 94.7927 121.745 95.2064 121.239C94.5934 121.494 94.0443 121.732 93.5233 121.967C93.0023 122.202 92.4737 122.388 91.968 122.623C91.4623 122.858 90.9285 123.06 90.3718 123.313C90.0883 123.43 89.7971 123.555 89.4932 123.691C89.1893 123.826 88.8726 123.961 88.5329 124.102L87.9123 124.357C87.6569 124.457 87.3683 124.549 87.0312 124.669L86.4897 124.855L85.8691 125.026C85.6495 125.085 85.4196 125.154 85.1745 125.213L84.3955 125.376C83.552 125.541 82.699 125.653 81.8415 125.711C81.4253 125.747 81.0549 125.736 80.7868 125.749H80.4701H80.3551L79.8444 125.726C79.686 125.726 79.4996 125.726 79.2953 125.703L78.6287 125.639L78.2711 125.604L77.9033 125.55C77.6479 125.512 77.413 125.481 77.178 125.438C76.7081 125.341 76.2714 125.269 75.9521 125.182C75.546 125.08 75.1859 124.996 74.8871 124.899C74.5883 124.802 74.3176 124.733 74.0954 124.643C73.6459 124.49 73.3292 124.388 73.1096 124.288C71.7406 123.76 70.6757 123.315 69.6387 122.907C68.6018 122.498 67.593 122.143 66.4029 121.568Z" fill="#202020"/>
<path d="M97.8881 46.2879C98.5036 45.6954 99.0935 45.1872 99.658 44.6942C100.222 44.2013 100.764 43.734 101.308 43.2461C102.393 42.2731 103.504 41.2387 104.904 39.926L105.328 39.5327L105.583 39.2773L105.913 38.9989L106.755 38.3093C107.075 38.054 107.463 37.7654 107.897 37.4308L108.275 37.1422C108.405 37.0477 108.543 36.9609 108.681 36.8664L109.547 36.2892C109.838 36.0797 110.162 35.9112 110.487 35.7196C110.811 35.5281 111.148 35.3314 111.493 35.1424L112.581 34.6316L113.138 34.3763L113.725 34.1515L114.926 33.6918C115.385 33.5232 115.855 33.37 116.312 33.1682C118.199 32.379 119.968 31.3331 121.568 30.0601C123.111 28.8225 124.556 27.4674 125.89 26.0069C127.167 24.6508 128.341 23.3508 129.478 22.4978C129.966 22.1114 130.515 21.8093 131.102 21.6039L131.48 21.5043L131.848 21.4532C131.971 21.4532 132.088 21.4532 132.206 21.4379H132.315H132.295C132.296 21.4507 132.296 21.4635 132.295 21.4762C132.325 21.5596 132.35 21.645 132.369 21.7316C132.45 22.0752 132.504 22.4244 132.533 22.7762C132.561 23.0852 132.573 23.3355 132.581 23.5041V23.7595C132.581 23.7595 132.581 24.0583 132.581 24.615C132.581 25.1718 132.55 25.9891 132.479 27.0106C132.333 29.0538 131.991 31.9193 131.442 35.1118C130.893 38.3042 130.165 41.8287 129.299 45.2127C128.433 48.5967 127.483 51.8351 126.569 54.4836C125.588 57.3185 124.853 59.0092 124.472 59.8877C123.688 61.6627 123.096 63.0444 122.529 64.3623C122.243 65.0212 121.962 65.6597 121.637 66.3135C121.299 67.0169 120.883 67.68 120.396 68.2902C121.152 67.9688 121.857 67.5386 122.488 67.0133C123.087 66.5211 123.639 65.9748 124.138 65.3813C125.241 64.0373 126.15 62.5448 126.837 60.9476C127.248 60.0282 128.02 58.2609 129.034 55.3289C129.979 52.6038 130.964 49.2939 131.83 45.8435C132.696 42.3931 133.452 38.8074 134.006 35.5434C134.56 32.2795 134.918 29.3373 135.066 27.1894C135.158 26.023 135.19 24.8526 135.163 23.6828V23.3866C135.163 23.1925 135.143 22.9064 135.107 22.5284C135.068 22.0441 134.992 21.5634 134.88 21.0906C134.841 20.9424 134.795 20.7841 134.737 20.6104C134.721 20.5645 134.711 20.5389 134.683 20.4648C134.655 20.3908 134.627 20.3295 134.599 20.2708C134.537 20.1533 134.481 20.0154 134.407 19.9132C134.265 19.6656 134.072 19.4503 133.842 19.2806C133.612 19.1109 133.35 18.9907 133.071 18.9274C132.914 18.893 132.754 18.8742 132.594 18.8712L132.229 18.8456L131.603 18.8686C131.391 18.8942 131.174 18.9299 130.954 18.9631C130.735 18.9963 130.523 19.0678 130.303 19.1317C129.437 19.4188 128.626 19.8505 127.905 20.4087C126.452 21.5094 125.251 22.8783 123.982 24.209C122.738 25.5721 121.39 26.8375 119.952 27.9939C119.233 28.5538 118.478 29.0657 117.691 29.5263C116.923 29.98 116.122 30.3769 115.296 30.7139C114.895 30.8927 114.479 31.0229 114.078 31.1736L112.739 31.6844L112.083 31.9398L111.462 32.236L110.257 32.8183C109.874 33.0252 109.511 33.2449 109.151 33.4492C108.791 33.6535 108.436 33.8501 108.129 34.0749L107.197 34.7338C107.047 34.836 106.893 34.933 106.753 35.0352L106.344 35.3468C105.874 35.7094 105.455 36.0108 105.111 36.3019L104.219 37.0681L103.869 37.3695L103.581 37.6377L103.131 38.0616C101.861 39.2396 100.756 40.5831 99.8444 42.056C99.4489 42.7033 99.0925 43.3736 98.7768 44.0634C98.4394 44.7878 98.1427 45.5304 97.8881 46.2879Z" fill="#202020"/>
<path d="M108.679 52.2974C110.528 50.4202 111.718 49.1228 113.345 46.5382L115.005 43.9281C115.883 42.5566 117.375 40.2529 118.68 38.3094C119.985 36.3658 121.096 34.8053 121.096 34.8053C121.096 34.8053 122.026 33.4875 123.257 31.8479C124.488 30.2082 126.043 28.2723 127.22 26.957C128.163 25.8568 129.212 24.8517 130.351 23.9561C130.794 23.6007 131.283 23.3077 131.805 23.0852C131.943 23.0301 132.09 22.9981 132.239 22.9907C132.37 22.9906 132.496 23.0409 132.591 23.1312C132.919 23.4734 133.167 23.8843 133.317 24.3341C133.535 24.8955 133.715 25.4716 133.853 26.058C134.014 25.4508 134.114 24.8287 134.149 24.2013C134.166 23.8863 134.15 23.5705 134.101 23.2589C134.048 22.9048 133.93 22.5636 133.753 22.2526C133.521 21.8556 133.161 21.5487 132.732 21.3817C132.291 21.2227 131.814 21.19 131.355 21.2872C130.553 21.4799 129.802 21.8431 129.154 22.3522C128.484 22.8375 127.312 23.8335 125.716 25.6162C124.482 26.9775 122.891 28.9695 121.645 30.6449C120.399 32.3203 119.461 33.6509 119.461 33.6509C119.461 33.6509 118.33 35.237 117.012 37.1882C115.694 39.1394 114.185 41.4533 113.306 42.8375C112.361 44.3214 111.917 45.0416 111.644 45.4834C110.045 48.0987 109.432 49.7715 108.679 52.2974Z" fill="#202020"/>
<path d="M29.8609 70.0244C30.8397 69.3429 31.7722 68.5972 32.6523 67.7922C33.6014 66.8971 34.4689 65.9194 35.2446 64.8705C35.5 64.5385 35.8729 64.0328 36.3275 63.3994C36.5573 63.0827 36.8 62.7303 37.0656 62.3574L37.2673 62.0612L37.51 61.7036C37.6734 61.4482 37.842 61.2209 38.0054 60.9655C38.3349 60.4547 38.6669 59.9439 38.9964 59.4025C39.1573 59.1471 39.3233 58.8764 39.4867 58.6082C39.6502 58.34 39.8136 58.0795 39.9975 57.8216C40.1814 57.5636 40.3423 57.2955 40.5287 57.0554C40.7152 56.8153 40.8965 56.5446 41.0957 56.2892L41.3741 55.9061L41.6831 55.5435C41.8849 55.2881 42.1122 55.0761 42.3293 54.8411C42.7788 54.3919 43.2621 53.9778 43.7748 53.6025C44.3092 53.2239 44.869 52.8826 45.4502 52.5809C45.7465 52.42 46.0555 52.2667 46.3671 52.1109L48.1268 51.2426L48.2442 51.1839L48.303 51.1532C48.3209 51.1532 48.303 51.1379 48.303 51.1302L48.2877 51.0996L48.1676 50.8621L47.9301 50.387L47.4525 49.4421L47.1639 48.9006C47.0796 48.7372 46.9877 48.5814 46.9085 48.423C46.5586 47.7896 46.1807 47.1741 45.8001 46.5663C44.3154 44.2644 42.67 42.0702 40.8761 40.0001C39.2032 38.0514 37.5713 36.3581 36.1487 34.9586C34.7262 33.559 33.5079 32.4557 32.6549 31.6972C31.8019 30.9386 31.309 30.5249 31.309 30.5249C31.309 30.5249 30.8237 30.1035 29.9426 29.3756C29.0615 28.6477 27.7819 27.6185 26.1781 26.4309C24.3283 25.0494 22.4104 23.7614 20.4317 22.5719C19.2768 21.8759 18.083 21.2466 16.8561 20.6871C16.192 20.3886 15.5096 20.1327 14.813 19.9209C14.4415 19.8047 14.0626 19.7134 13.679 19.6476C13.2423 19.5646 12.7959 19.5448 12.3535 19.5889C12.2232 19.6007 12.0942 19.6238 11.9678 19.6578C11.8262 19.6927 11.6878 19.7397 11.5541 19.7983C11.3223 19.8928 11.1126 20.0346 10.9386 20.2146C10.8799 20.2675 10.8253 20.3247 10.7751 20.3857C10.6294 20.5605 10.4979 20.7467 10.3818 20.9425L10.2158 21.2489L10.0881 21.5528C9.80281 22.3213 9.64661 23.1316 9.62587 23.951C9.60016 25.4242 9.71217 26.8966 9.96044 28.3489C10.175 29.7536 10.4304 31.1123 10.6858 32.4353L11.4213 36.187C11.8095 38.1663 12.0981 39.7881 12.2386 40.5977C12.7494 43.5935 13.3112 45.2382 14.1949 47.7207C14.578 45.1157 14.6929 43.3126 14.1949 40.2657C14.0621 39.4433 13.7735 37.796 13.3827 35.8039L12.6421 32.0471C12.3867 30.7394 12.1313 29.4012 11.9321 28.0527C11.7108 26.7288 11.6099 25.3876 11.6307 24.0455C11.6428 23.4488 11.7515 22.858 11.9525 22.2961L12.0266 22.1122L12.1185 21.9487C12.1769 21.8448 12.2435 21.7457 12.3177 21.6525C12.3407 21.6167 12.3331 21.6525 12.3382 21.6346C12.3433 21.6167 12.3382 21.6346 12.3382 21.6346C12.3382 21.6346 12.3382 21.6346 12.3765 21.6193C12.4033 21.6063 12.4316 21.5969 12.4608 21.5912C12.5031 21.5787 12.5469 21.5719 12.591 21.5707C12.8471 21.5471 13.1054 21.5617 13.3572 21.6141C13.6563 21.6653 13.9516 21.737 14.2409 21.8287C14.8506 22.0209 15.4477 22.2512 16.0286 22.5182C17.1869 23.0499 18.3142 23.6468 19.405 24.306C21.3293 25.4586 23.1943 26.7074 24.993 28.0476C26.5612 29.2071 27.8024 30.2159 28.6758 30.9259C29.5493 31.6359 30.0167 32.0496 30.0167 32.0496C30.0167 32.0496 30.4968 32.4557 31.3345 33.1989C32.1722 33.9421 33.3572 35.025 34.7517 36.3913C36.1462 37.7577 37.7347 39.4178 39.3488 41.3128C41.0801 43.3109 42.6675 45.4291 44.0992 47.6517C44.4618 48.2315 44.8219 48.8163 45.154 49.4165C45.2382 49.5672 45.3251 49.7153 45.4094 49.866L45.6188 50.2619H45.5984L45.4783 50.3232C45.1565 50.4841 44.8347 50.6424 44.5104 50.8161C43.8496 51.1629 43.2123 51.5528 42.6026 51.9832C42.0015 52.4243 41.4346 52.9101 40.9067 53.4364C40.6513 53.7046 40.3959 53.9626 40.1712 54.2384L39.8213 54.6445L39.4969 55.0608C39.2773 55.334 39.0781 55.615 38.8789 55.8934C38.6797 56.1717 38.4958 56.4527 38.3094 56.7311C38.1229 57.0094 37.9492 57.2878 37.7781 57.5636L37.2878 58.3605C36.9736 58.8713 36.6518 59.3821 36.3326 59.8673C36.1794 60.1227 36.0133 60.3475 35.855 60.5824L35.62 60.9298L35.4234 61.2158L34.7057 62.2374C34.2613 62.858 33.8987 63.356 33.6535 63.6855C32.8811 64.7092 32.1674 65.7759 31.5158 66.8805C30.9361 67.8638 30.4508 68.847 29.8609 70.0244Z" fill="#202020"/>
<path d="M11.5694 20.9808C11.1666 21.2877 10.8347 21.678 10.5964 22.1249L10.4304 22.4518L10.2976 22.7839C10.2139 23.0093 10.1439 23.2395 10.0881 23.4734C9.87175 24.5166 9.82861 25.5883 9.96043 26.6454C10.0013 27.0643 10.0728 27.7436 10.295 29.1228C10.5274 30.6194 11.2272 34.0851 11.2272 34.0851C11.2272 34.0851 11.7967 36.9839 12.0904 38.5877C12.4224 40.3908 12.6012 41.5095 12.6932 42.0918C13.0635 44.4567 13.4977 45.7593 14.1898 47.7105C14.4937 45.6673 14.5933 44.2473 14.2409 41.8491C14.1515 41.2566 13.9855 40.1201 13.6432 38.2991C13.3521 36.6774 12.7672 33.7786 12.7672 33.7786C12.7672 33.7786 12.0777 30.318 11.8427 28.8597C11.6231 27.5138 11.5567 26.8727 11.5107 26.4769C11.3906 25.3148 11.2885 24.4337 11.2323 23.5756C11.2323 23.3687 11.2042 23.1542 11.2119 22.9499V22.6408L11.2374 22.3241C11.2652 21.8598 11.3777 21.4046 11.5694 20.9808Z" fill="#202020"/>
<path d="M55.5716 88.515C59.0865 88.515 61.936 85.6656 61.936 82.1506C61.936 78.6356 59.0865 75.7861 55.5716 75.7861C52.0566 75.7861 49.2071 78.6356 49.2071 82.1506C49.2071 85.6656 52.0566 88.515 55.5716 88.515Z" fill="black"/>
<path fill-rule="evenodd" clip-rule="evenodd" d="M55.5716 76.1692C52.2681 76.1692 49.5902 78.8471 49.5902 82.1506C49.5902 85.454 52.2681 88.1319 55.5716 88.1319C58.875 88.1319 61.5529 85.454 61.5529 82.1506C61.5529 78.8471 58.875 76.1692 55.5716 76.1692ZM48.824 82.1506C48.824 78.424 51.845 75.403 55.5716 75.403C59.2981 75.403 62.3191 78.424 62.3191 82.1506C62.3191 85.8771 59.2981 88.8981 55.5716 88.8981C51.845 88.8981 48.824 85.8771 48.824 82.1506Z" fill="black"/>
<path d="M103.285 87.5471C106.265 87.5471 108.681 85.131 108.681 82.1506C108.681 79.1702 106.265 76.7541 103.285 76.7541C100.304 76.7541 97.8881 79.1702 97.8881 82.1506C97.8881 85.131 100.304 87.5471 103.285 87.5471Z" fill="black"/>
<path fill-rule="evenodd" clip-rule="evenodd" d="M103.285 77.1372C100.516 77.1372 98.2712 79.3817 98.2712 82.1506C98.2712 84.9194 100.516 87.164 103.285 87.164C106.053 87.164 108.298 84.9194 108.298 82.1506C108.298 79.3817 106.053 77.1372 103.285 77.1372ZM97.505 82.1506C97.505 78.9586 100.093 76.371 103.285 76.371C106.477 76.371 109.064 78.9586 109.064 82.1506C109.064 85.3426 106.477 87.9302 103.285 87.9302C100.093 87.9302 97.505 85.3426 97.505 82.1506Z" fill="black"/>
<path d="M54.1796 47.1103C54.1878 46.3001 54.1314 45.4904 54.0111 44.6891C53.6407 42.1682 52.6118 39.7895 51.0281 37.7935C50.5172 37.1329 49.9653 36.5051 49.3756 35.9137C49.0028 35.5307 48.5711 35.1322 48.0987 34.7236L47.759 34.4427C47.6313 34.3354 47.5036 34.2307 47.3606 34.1311C47.0847 33.9293 46.8166 33.7122 46.5229 33.5232C46.2292 33.3343 45.938 33.1248 45.6264 32.9461C45.3149 32.7673 45.0058 32.5732 44.6738 32.4097L44.1835 32.1543C44.0149 32.07 43.8438 31.9985 43.6727 31.9194L43.1619 31.6844L42.6281 31.4775L42.0892 31.2707L41.535 31.0944L40.4726 30.7548C39.7932 30.5377 39.0934 30.3334 38.4294 30.0626C38.0897 29.9349 37.7424 29.8072 37.4078 29.677L36.4015 29.2352C35.0537 28.6324 33.7666 27.9021 32.5578 27.0541C31.3304 26.173 30.1601 25.2151 29.0538 24.186C27.9199 23.1644 26.7936 22.0892 25.6239 21.1008C24.4541 20.1124 23.2793 19.1777 22.0943 18.3578C20.9628 17.5302 19.7672 16.7941 18.5187 16.1563C17.9245 15.8532 17.3121 15.5871 16.685 15.3595C16.0771 15.1409 15.4505 14.9784 14.813 14.8743C14.1839 14.7719 13.5439 14.7547 12.9103 14.8232C11.7598 14.9445 10.6793 15.4345 9.83018 16.2202C9.65651 16.3862 9.49306 16.5522 9.35004 16.7157C9.20702 16.8791 9.07421 17.0375 8.9695 17.1932C8.63689 17.6576 8.35438 18.1558 8.12669 18.6796L7.95813 19.0781C7.91982 19.1675 7.9045 19.2134 7.9045 19.2134C7.9045 19.2134 7.83299 19.3999 7.71295 19.7498C7.54991 20.2532 7.41267 20.7647 7.30177 21.2821C7.13514 22.0675 7.01067 22.8612 6.92889 23.6599C6.91101 23.8897 6.88292 24.1221 6.86759 24.3724L6.83695 25.1565C6.81297 25.7263 6.82662 26.2971 6.87781 26.8651C6.9951 28.1478 7.26958 29.4113 7.69508 30.6271C8.1318 31.904 8.68601 33.1555 9.22745 34.4325C9.76889 35.7094 10.3078 37.0196 10.7879 38.3885C11.0127 39.0755 11.2553 39.7677 11.4417 40.4828C11.5388 40.8403 11.6486 41.1953 11.7405 41.5554L12.0036 42.6511C12.19 43.379 12.3075 44.1298 12.4505 44.8756L12.5553 45.4375C12.5885 45.6239 12.6089 45.8154 12.637 46.0019L12.7953 47.1384L12.9613 48.3055C13.0277 48.7142 13.066 49.1254 13.1605 49.5289C13.255 49.9324 13.3138 50.3359 13.4159 50.7318C13.5181 51.1277 13.6203 51.5235 13.7352 51.9143C14.1899 53.4373 14.7814 54.9162 15.5025 56.3326C15.8524 57.0196 16.2176 57.6888 16.6033 58.3247C16.7897 58.6491 16.9915 58.9555 17.1881 59.262L17.4844 59.7192L17.7628 60.1202C18.4526 61.1194 19.1943 62.0819 19.9847 63.0036C20.6539 63.7953 21.2285 64.4031 21.6116 64.8041C22.8016 66.058 24.1474 67.154 25.6162 68.0655C26.2634 68.4603 26.9328 68.8176 27.621 69.1356C28.3533 69.4745 29.1036 69.7729 29.8685 70.0295C29.2786 69.4089 28.7703 68.8189 28.2774 68.2545L26.8165 66.597C25.8435 65.5065 24.7989 64.4057 23.4683 63.0214C23.1133 62.6384 22.577 62.0688 21.9538 61.3256C21.221 60.467 20.533 59.5711 19.8928 58.6414L19.6374 58.2711L19.3641 57.8497C19.1828 57.5662 18.9938 57.2827 18.8252 56.9865C18.4702 56.4016 18.1382 55.7912 17.8164 55.1629C17.165 53.8841 16.6307 52.5489 16.2202 51.1736C16.1155 50.8263 16.0312 50.4713 15.9367 50.1163C15.8422 49.7613 15.7835 49.4012 15.7043 49.0436C15.6251 48.6861 15.5868 48.3209 15.5281 47.9582L15.3621 46.8038L15.196 45.6137C15.168 45.417 15.145 45.2178 15.1118 45.0212L15.0019 44.4286C14.8513 43.642 14.7261 42.8503 14.5269 42.0764L14.2562 40.917C14.1591 40.5313 14.0442 40.1508 13.9395 39.7728C13.7377 39.0066 13.4823 38.2762 13.2423 37.5432C12.7315 36.0925 12.1722 34.6981 11.6077 33.4083C11.0433 32.1186 10.5223 30.9131 10.1367 29.7919C9.77821 28.7721 9.54744 27.7118 9.44964 26.6352C9.35416 25.0235 9.47961 23.4064 9.82252 21.8287C9.91301 21.3975 10.0255 20.9713 10.1596 20.5517L10.3103 20.1328C10.3103 20.1328 10.3103 20.0945 10.3512 20.0256L10.4789 19.7268C10.5325 19.594 10.6168 19.4484 10.7036 19.2645C10.8121 19.0712 10.9306 18.8836 11.0586 18.7026C11.125 18.5979 11.2119 18.5136 11.291 18.4089C11.3702 18.3042 11.4698 18.2199 11.5669 18.1229C11.7764 17.9393 12.0091 17.7839 12.259 17.6606C12.5569 17.5292 12.8729 17.4431 13.1963 17.4052C13.599 17.3652 14.0052 17.379 14.4043 17.4461C14.891 17.5236 15.3697 17.645 15.8345 17.8087C16.3588 17.9996 16.8706 18.2231 17.3669 18.4779C18.4951 19.0598 19.5754 19.7302 20.5977 20.4827C21.7137 21.2489 22.8222 22.1351 23.9331 23.0801C25.0441 24.0251 26.1398 25.062 27.3018 26.1142C28.4827 27.2131 29.7315 28.2367 31.0408 29.179C32.3821 30.1187 33.8093 30.9293 35.3033 31.6001L36.4041 32.0803C36.7719 32.2284 37.1422 32.3612 37.51 32.4991C38.2429 32.7903 38.981 33.0099 39.7064 33.2398L40.7279 33.5692L41.2081 33.7225L41.6755 33.9012L42.1377 34.08L42.5821 34.2818C42.7302 34.3507 42.8784 34.412 43.024 34.4861L43.4479 34.7083C43.734 34.8487 44.0021 35.0122 44.2677 35.1705C44.5333 35.3289 44.7785 35.5 45.0339 35.6686C45.2893 35.8371 45.5217 36.0185 45.7592 36.1921C45.8793 36.2764 45.9942 36.3684 46.104 36.4629L46.3901 36.7004C46.8089 37.0528 47.1843 37.4002 47.5138 37.722C48.0321 38.2408 48.5191 38.79 48.9721 39.3667C50.1291 40.8301 50.9514 42.0611 51.7636 43.2436C52.1697 43.8387 52.563 44.4261 52.964 45.0493C53.3649 45.6724 53.7914 46.3492 54.1796 47.1103Z" fill="#202020"/>
<path d="M54.2818 81.6832C55.6697 81.6832 56.7949 80.8279 56.7949 79.7728C56.7949 78.7178 55.6697 77.8625 54.2818 77.8625C52.8939 77.8625 51.7687 78.7178 51.7687 79.7728C51.7687 80.8279 52.8939 81.6832 54.2818 81.6832Z" fill="#D8D8D8"/>
<path d="M51.853 83.8566C52.3241 83.8566 52.706 83.4747 52.706 83.0036C52.706 82.5325 52.3241 82.1506 51.853 82.1506C51.3819 82.1506 51 82.5325 51 83.0036C51 83.4747 51.3819 83.8566 51.853 83.8566Z" fill="#D8D8D8"/>
<path d="M54.3737 84.1759C54.7109 84.1759 54.9841 83.9026 54.9841 83.5655C54.9841 83.2284 54.7109 82.9551 54.3737 82.9551C54.0366 82.9551 53.7634 83.2284 53.7634 83.5655C53.7634 83.9026 54.0366 84.1759 54.3737 84.1759Z" fill="#D8D8D8"/>
<path d="M102.245 82.1506C103.563 82.1506 104.631 81.3387 104.631 80.3373C104.631 79.3358 103.563 78.5239 102.245 78.5239C100.928 78.5239 99.8597 79.3358 99.8597 80.3373C99.8597 81.3387 100.928 82.1506 102.245 82.1506Z" fill="#D8D8D8"/>
<path d="M99.9414 84.2116C100.389 84.2116 100.751 83.8491 100.751 83.402C100.751 82.9549 100.389 82.5924 99.9414 82.5924C99.4943 82.5924 99.1318 82.9549 99.1318 83.402C99.1318 83.8491 99.4943 84.2116 99.9414 84.2116Z" fill="#D8D8D8"/>
<path d="M102.332 84.5181C102.652 84.5181 102.912 84.2586 102.912 83.9384C102.912 83.6182 102.652 83.3586 102.332 83.3586C102.012 83.3586 101.752 83.6182 101.752 83.9384C101.752 84.2586 102.012 84.5181 102.332 84.5181Z" fill="#D8D8D8"/>
<path d="M79.4102 97.3262C80.0563 96.7567 79.7013 95.8066 78.69 95.8168C77.6173 95.8296 76.3914 96.3429 75.7861 97.058C74.8156 98.192 77.5177 98.999 79.4102 97.3262Z" fill="#EAEAEA"/>
</svg>
