<?xml version="1.0" encoding="UTF-8" standalone="no"?>
<!DOCTYPE svg PUBLIC "-//W3C//DTD SVG 1.1//EN" "http://www.w3.org/Graphics/SVG/1.1/DTD/svg11.dtd">
<svg width="100%" height="100%" viewBox="0 0 628 43" version="1.1" xmlns="http://www.w3.org/2000/svg" xmlns:xlink="http://www.w3.org/1999/xlink" xml:space="preserve" xmlns:serif="http://www.serif.com/" style="fill-rule:evenodd;clip-rule:evenodd;stroke-linecap:round;stroke-linejoin:round;stroke-miterlimit:1.5;">
    <g transform="matrix(1,0,0,1,-16.6186,-7090.17)">
        <g transform="matrix(0.716512,0,0,0.858221,-454.879,1116.49)">
            <g id="Top-border" serif:id="Top border" transform="matrix(0.187679,0,0,0.156689,451.728,6900.74)">
                <g transform="matrix(1,0,0,1,-11.348,3.16166)">
                    <path d="M3068.19,564.985C3112.72,555.993 3160.12,537.658 3215.14,494.576C3301.71,412.451 3369.71,410.226 3432.68,448.38" style="fill:none;stroke:rgb(33,41,81);stroke-width:37.18px;"/>
                    <path d="M1129.25,511.594L1854.48,511.594" style="fill:none;stroke:rgb(33,41,81);stroke-width:37.18px;"/>
                    <path d="M3068.19,564.985C2952.59,558.437 2790.99,522.239 2603.98,469.669C2547.46,453.758 2487.36,456.101 2432.24,476.365C2533.67,456.655 2498.41,459.063 2465.36,466.664C2417.95,477.797 2381.48,515.692 2372.17,563.49C2371.84,563.527 2371.83,563.624 2371.81,563.721C2370.51,570.401 2372.35,577.308 2376.8,582.455C2381.25,587.603 2387.82,590.419 2394.62,590.094C2403.04,589.691 2412.13,589.256 2420.05,588.878C2425.11,588.636 2429.76,586.015 2432.58,581.812C2435.4,577.608 2436.07,572.317 2434.37,567.545C2433.5,565.081 2432.6,562.531 2431.69,559.979C2425.58,542.752 2410.2,530.501 2392.05,528.4C2381.54,527.184 2369.03,525.735 2355.83,524.207C2285.2,516.033 2213.66,525.26 2147.42,551.083C2147.41,551.083 2147.41,551.084 2147.41,551.084C2124.16,560.147 2098.75,562.104 2074.39,556.709C2043.74,549.919 2005.37,541.422 2005.37,541.422" style="fill:none;stroke:rgb(33,41,81);stroke-width:37.18px;"/>
                    <path d="M2643.85,481.012C2523.1,483.986 2478.02,539.97 2495.86,603.898C2526.48,672.073 2561.3,684.356 2618.35,670.819C2641.41,648.016 2647.33,623.667 2627.66,607.001" style="fill:none;stroke:rgb(33,41,81);stroke-width:37.18px;"/>
                    <g transform="matrix(1,0,0,1,0,-14.4226)">
                        <circle cx="1907.87" cy="526.016" r="53.391" style="fill:none;stroke:rgb(33,41,81);stroke-width:37.18px;"/>
                    </g>
                    <path d="M3068.19,564.985C2984.78,485.949 2867.12,497.462 2918.13,418.092C2951.63,392.987 2994.48,399.182 3012.76,446.617" style="fill:none;stroke:rgb(33,41,81);stroke-width:37.18px;"/>
                    <g transform="matrix(-1,0,0,1,6136.37,-3.26829)">
                        <path d="M3068.19,564.985C2984.78,485.949 2867.12,497.462 2918.13,418.092C2951.63,392.987 2994.48,399.182 3012.76,446.617" style="fill:none;stroke:rgb(33,41,81);stroke-width:37.18px;"/>
                    </g>
                    <g transform="matrix(1.02479,0,0,1,-76.075,0)">
                        <path d="M2085.37,446.066C2023.82,418.298 1981.98,449.192 1992.85,511.594C2003.99,535.836 2023.16,543.026 2048.39,542.762C2073.25,542.462 2097.41,534.296 2117.56,519.384C2387.05,321.019 2711.44,383.973 3068.19,564.985" style="fill:none;stroke:rgb(33,41,81);stroke-width:36.72px;"/>
                    </g>
                </g>
                <g transform="matrix(-1,0,0,1,6876.7,3.16166)">
                    <path d="M3068.19,564.985C3112.72,555.993 3160.12,537.658 3215.14,494.576C3301.71,412.451 3369.71,410.226 3432.68,448.38" style="fill:none;stroke:rgb(33,41,81);stroke-width:37.18px;"/>
                    <path d="M1129.25,511.594L1854.48,511.594" style="fill:none;stroke:rgb(33,41,81);stroke-width:37.18px;"/>
                    <path d="M3068.19,564.985C2952.59,558.437 2790.99,522.239 2603.98,469.669C2547.46,453.758 2487.36,456.101 2432.24,476.365C2533.67,456.655 2498.41,459.063 2465.36,466.664C2417.95,477.797 2381.48,515.692 2372.17,563.49C2371.84,563.527 2371.83,563.624 2371.81,563.721C2370.51,570.401 2372.35,577.308 2376.8,582.455C2381.25,587.603 2387.82,590.419 2394.62,590.094C2403.04,589.691 2412.13,589.256 2420.05,588.878C2425.11,588.636 2429.76,586.015 2432.58,581.812C2435.4,577.608 2436.07,572.317 2434.37,567.545C2433.5,565.081 2432.6,562.531 2431.69,559.979C2425.58,542.752 2410.2,530.501 2392.05,528.4C2381.54,527.184 2369.03,525.735 2355.83,524.207C2285.2,516.033 2213.66,525.26 2147.42,551.083C2147.41,551.083 2147.41,551.084 2147.41,551.084C2124.16,560.147 2098.75,562.104 2074.39,556.709C2043.74,549.919 2005.37,541.422 2005.37,541.422" style="fill:none;stroke:rgb(33,41,81);stroke-width:37.18px;"/>
                    <path d="M2643.85,481.012C2523.1,483.986 2478.02,539.97 2495.86,603.898C2526.48,672.073 2561.3,684.356 2618.35,670.819C2641.41,648.016 2647.33,623.667 2627.66,607.001" style="fill:none;stroke:rgb(33,41,81);stroke-width:37.18px;"/>
                    <g transform="matrix(1,0,0,1,0,-14.4226)">
                        <circle cx="1907.87" cy="526.016" r="53.391" style="fill:none;stroke:rgb(33,41,81);stroke-width:37.18px;"/>
                    </g>
                    <path d="M3068.19,564.985C2984.78,485.949 2867.12,497.462 2918.13,418.092C2951.63,392.987 2994.48,399.182 3012.76,446.617" style="fill:none;stroke:rgb(33,41,81);stroke-width:37.18px;"/>
                    <g transform="matrix(-1,0,0,1,6136.37,-3.26829)">
                        <path d="M3068.19,564.985C2984.78,485.949 2867.12,497.462 2918.13,418.092C2951.63,392.987 2994.48,399.182 3012.76,446.617" style="fill:none;stroke:rgb(33,41,81);stroke-width:37.18px;"/>
                    </g>
                    <g transform="matrix(1.02479,0,0,1,-76.075,0)">
                        <path d="M2085.37,446.066C2023.82,418.298 1981.98,449.192 1992.85,511.594C2003.99,535.836 2023.16,543.026 2048.39,542.762C2073.25,542.462 2097.41,534.296 2117.56,519.384C2387.05,321.019 2711.44,383.973 3068.19,564.985" style="fill:none;stroke:rgb(33,41,81);stroke-width:36.72px;"/>
                    </g>
                </g>
            </g>
        </g>
    </g>
</svg>
