<?xml version="1.0" encoding="UTF-8" standalone="no"?>
<!DOCTYPE svg PUBLIC "-//W3C//DTD SVG 1.1//EN" "http://www.w3.org/Graphics/SVG/1.1/DTD/svg11.dtd">
<svg width="100%" height="100%" viewBox="0 0 2010 2567" version="1.1" xmlns="http://www.w3.org/2000/svg" xmlns:xlink="http://www.w3.org/1999/xlink" xml:space="preserve" xmlns:serif="http://www.serif.com/" style="fill-rule:evenodd;clip-rule:evenodd;stroke-linecap:round;stroke-linejoin:round;stroke-miterlimit:1.5;">
    <g transform="matrix(1,0,0,1,-233.455,-379.537)">
        <g transform="matrix(1,0,0,1,3437.67,-0.147815)">
            <g transform="matrix(1.16563,0,0,1.03234,-3680.46,-191.14)">
                <path d="M2132.93,728.139C2091.78,728.139 2052.32,709.68 2023.22,676.824C1994.12,643.968 1977.77,599.406 1977.77,552.941L563.739,552.941C563.739,599.406 547.392,643.968 518.293,676.824C489.194,709.68 449.728,728.139 408.576,728.139L408.576,2863.89C449.728,2863.89 489.194,2882.35 518.293,2915.2C547.392,2948.06 563.739,2992.62 563.739,3039.09L1977.77,3039.09C1977.77,2992.62 1994.12,2948.06 2023.22,2915.2C2052.32,2882.35 2091.78,2863.89 2132.93,2863.89L2132.93,728.139Z" style="fill:rgb(248,231,205);"/>
            </g>
        </g>
        <g transform="matrix(1,0,0,1,3437.67,-0.147815)">
            <g transform="matrix(1.10609,0,0,0.979615,-3604.8,-96.4404)">
                <path d="M2132.93,737.568C2089.57,737.568 2047.98,718.117 2017.31,683.492C1986.65,648.868 1969.42,601.907 1969.42,552.941L572.091,552.941C572.091,601.907 554.864,648.868 524.198,683.492C493.533,718.117 451.943,737.568 408.576,737.568L408.576,2854.46C451.943,2854.46 493.533,2873.91 524.198,2908.54C554.864,2943.16 572.091,2990.12 572.091,3039.09L1969.42,3039.09C1969.42,2990.12 1986.65,2943.16 2017.31,2908.54C2047.98,2873.91 2089.57,2854.46 2132.93,2854.46L2132.93,737.568Z" style="fill:none;stroke:rgb(215,99,77);stroke-width:21.93px;"/>
            </g>
        </g>
        <g transform="matrix(1,0,0,1,3437.67,-0.147815)">
            <g transform="matrix(1.0351,0,0,0.916742,-3514.59,16.4793)">
                <path d="M2132.93,750.231C2086.59,750.231 2042.15,729.445 2009.38,692.446C1976.61,655.447 1958.2,605.266 1958.2,552.941L583.305,552.941C583.305,605.266 564.896,655.447 532.128,692.446C499.36,729.445 454.917,750.231 408.576,750.231L408.576,2841.8C454.917,2841.8 499.36,2862.59 532.128,2899.58C564.896,2936.58 583.305,2986.76 583.305,3039.09L1958.2,3039.09C1958.2,2986.76 1976.61,2936.58 2009.38,2899.58C2042.15,2862.59 2086.59,2841.8 2132.93,2841.8L2132.93,750.231Z" style="fill:none;stroke:rgb(215,99,77);stroke-width:21.31px;stroke-dasharray:21.31,63.92,0,0;"/>
            </g>
        </g>
    </g>
</svg>
