<?xml version="1.0" encoding="UTF-8" standalone="no"?>
<!DOCTYPE svg PUBLIC "-//W3C//DTD SVG 1.1//EN" "http://www.w3.org/Graphics/SVG/1.1/DTD/svg11.dtd">
<svg width="100%" height="100%" viewBox="0 0 669 338" version="1.1" xmlns="http://www.w3.org/2000/svg" xmlns:xlink="http://www.w3.org/1999/xlink" xml:space="preserve" xmlns:serif="http://www.serif.com/" style="fill-rule:evenodd;clip-rule:evenodd;stroke-linecap:round;stroke-linejoin:round;stroke-miterlimit:1.5;">
    <g transform="matrix(1,0,0,1,-2830.62,-66537.7)">
        <g transform="matrix(-0.440472,0,0,0.437171,4166.49,37528)">
            <g transform="matrix(2.83876,0,0,2.39284,-17059.6,64864.1)">
                <g transform="matrix(0.695819,0,0,0.740863,6367.3,-541.435)">
                    <path d="M253.243,1637.9L253.243,1628.51C267.86,1628.51 281.878,1622.7 292.213,1612.37C302.548,1602.03 308.355,1588.01 308.355,1573.4C449.836,1573.4 824.638,1573.4 966.119,1573.4C966.119,1588.01 971.925,1602.03 982.261,1612.37C992.596,1622.7 1006.61,1628.51 1021.23,1628.51L1021.23,1637.94C1013,1637.94 1006.31,1644.62 1006.31,1652.86C1006.31,1661.09 1013,1667.78 1021.23,1667.78L1021.23,1677.37C1013,1677.37 1006.31,1684.05 1006.31,1692.29C1006.31,1700.52 1013,1707.21 1021.23,1707.21L1021.23,1716.8C1013,1716.8 1006.31,1723.48 1006.31,1731.72C1006.31,1739.95 1013,1746.64 1021.23,1746.64L1021.23,1756.23C1013,1756.23 1006.31,1762.92 1006.31,1771.15C1006.31,1779.38 1013,1786.07 1021.23,1786.07L1021.23,1795.66C1013,1795.66 1006.31,1802.35 1006.31,1810.58C1006.31,1818.82 1013,1825.5 1021.23,1825.5L1021.23,1835.09C1013,1835.09 1006.31,1841.78 1006.31,1850.01C1006.31,1858.25 1013,1864.93 1021.23,1864.93L1021.23,1874.53C1013,1874.53 1006.31,1881.21 1006.31,1889.45C1006.31,1897.68 1013,1904.37 1021.23,1904.37L1021.23,1913.96C1013,1913.96 1006.31,1920.64 1006.31,1928.88C1006.31,1937.11 1013,1943.8 1021.23,1943.8L1021.23,1953.22C1006.61,1953.22 992.596,1959.03 982.261,1969.37C971.925,1979.7 966.119,1993.72 966.119,2008.34L308.355,2008.34C308.355,1993.72 302.548,1979.7 292.213,1969.37C281.878,1959.03 267.86,1953.22 253.243,1953.22L253.243,1943.76C261.478,1943.76 268.163,1937.08 268.163,1928.84C268.163,1920.61 261.478,1913.92 253.243,1913.92L253.243,1904.33C261.478,1904.33 268.163,1897.65 268.163,1889.41C268.163,1881.18 261.478,1874.49 253.243,1874.49L253.243,1864.9C261.478,1864.9 268.163,1858.22 268.163,1849.98C268.163,1841.75 261.478,1835.06 253.243,1835.06L253.243,1825.47C261.478,1825.47 268.163,1818.78 268.163,1810.55C268.163,1802.31 261.478,1795.63 253.243,1795.63L253.243,1786.04C261.478,1786.04 268.163,1779.35 268.163,1771.12C268.163,1762.88 261.478,1756.2 253.243,1756.2L253.243,1746.61C261.478,1746.61 268.163,1739.92 268.163,1731.68C268.163,1723.45 261.478,1716.77 253.243,1716.77L253.243,1707.17C261.478,1707.17 268.163,1700.49 268.163,1692.25C268.163,1684.02 261.478,1677.33 253.243,1677.33L253.243,1667.74C261.478,1667.74 268.163,1661.06 268.163,1652.82C268.163,1644.59 261.478,1637.9 253.243,1637.9Z" style="fill:rgb(185,82,46);"/>
                </g>
                <g transform="matrix(0.690948,0,0,0.794212,6372.31,-636.679)">
                    <path d="M957.304,1685.07C957.304,1660.47 938.095,1640.49 914.434,1640.49L354.531,1640.49C330.871,1640.49 311.662,1660.47 311.662,1685.07L311.662,1895.91C311.662,1920.52 330.871,1940.49 354.531,1940.49L914.434,1940.49C938.095,1940.49 957.304,1920.52 957.304,1895.91L957.304,1685.07Z" style="fill:rgb(252,232,204);stroke:rgb(84,17,9);stroke-width:4.72px;"/>
                </g>
                <g transform="matrix(0.817621,0,0,0.740863,6274.94,-541.435)">
                    <path d="M863.249,1630.07L863.249,1951.67" style="fill:none;stroke:rgb(245,172,78);stroke-width:4.41px;"/>
                </g>
                <g transform="matrix(0.913958,0,0,0.989906,4705.59,-65240.8)">
                    <path d="M2547.34,66614.7C2547.34,66595.1 2532.89,66579.1 2515.08,66579.1C2501.74,66579.1 2489.34,66579.1 2489.34,66579.1L2489.34,66819.8L2515.08,66819.8C2532.89,66819.8 2547.34,66803.9 2547.34,66784.2L2547.34,66614.7Z" style="fill:rgb(84,17,9);stroke:rgb(84,17,9);stroke-width:3.67px;"/>
                </g>
                <g transform="matrix(1.14281,0,0,1.03552,-934.478,-22.1745)">
                    <g transform="matrix(0.466403,0,0,0.466403,6516.73,-85.3938)">
                        <path d="M927.283,1679.47L933.496,1698.59L953.603,1698.59L937.336,1710.41L943.55,1729.53L927.283,1717.71L911.016,1729.53L917.229,1710.41L900.963,1698.59L921.07,1698.59L927.283,1679.47Z" style="fill:rgb(245,172,78);"/>
                    </g>
                    <g transform="matrix(0.466403,0,0,0.466403,6516.73,-51.1004)">
                        <path d="M927.283,1679.47L933.496,1698.59L953.603,1698.59L937.336,1710.41L943.55,1729.53L927.283,1717.71L911.016,1729.53L917.229,1710.41L900.963,1698.59L921.07,1698.59L927.283,1679.47Z" style="fill:rgb(245,172,78);"/>
                    </g>
                    <g transform="matrix(0.466403,0,0,0.466403,6516.73,-16.4769)">
                        <path d="M927.283,1679.47L933.496,1698.59L953.603,1698.59L937.336,1710.41L943.55,1729.53L927.283,1717.71L911.016,1729.53L917.229,1710.41L900.963,1698.59L921.07,1698.59L927.283,1679.47Z" style="fill:rgb(245,172,78);"/>
                    </g>
                    <g transform="matrix(0.466403,0,0,0.466403,6516.73,17.8176)">
                        <path d="M927.283,1679.47L933.496,1698.59L953.603,1698.59L937.336,1710.41L943.55,1729.53L927.283,1717.71L911.016,1729.53L917.229,1710.41L900.963,1698.59L921.07,1698.59L927.283,1679.47Z" style="fill:rgb(245,172,78);"/>
                    </g>
                    <g transform="matrix(0.466403,0,0,0.466403,6516.73,55.0769)">
                        <path d="M927.283,1679.47L933.496,1698.59L953.603,1698.59L937.336,1710.41L943.55,1729.53L927.283,1717.71L911.016,1729.53L917.229,1710.41L900.963,1698.59L921.07,1698.59L927.283,1679.47Z" style="fill:rgb(245,172,78);"/>
                    </g>
                </g>
            </g>
        </g>
    </g>
</svg>
